<svg width="43" height="34" viewBox="0 0 43 34" fill="none" xmlns="http://www.w3.org/2000/svg">
<path fill-rule="evenodd" clip-rule="evenodd" d="M4 25C4.55228 25 5 25.4477 5 26V32H9V27C9 26.4477 9.44772 26 10 26C10.5523 26 11 26.4477 11 27V32C11 33.1046 10.1046 34 9 34H5C3.89543 34 3 33.1046 3 32V26C3 25.4477 3.44772 25 4 25Z" fill="#204EF4"/>
<path fill-rule="evenodd" clip-rule="evenodd" d="M39 25C38.4477 25 38 25.4477 38 26V32H34V27C34 26.4477 33.5523 26 33 26C32.4477 26 32 26.4477 32 27V32C32 33.1046 32.8954 34 34 34H38C39.1046 34 40 33.1046 40 32V26C40 25.4477 39.5523 25 39 25Z" fill="#204EF4"/>
<path fill-rule="evenodd" clip-rule="evenodd" d="M10 16C8.89543 16 8 16.8954 8 18C8 19.1046 8.89543 20 10 20C11.1046 20 12 19.1046 12 18C12 16.8954 11.1046 16 10 16ZM6 18C6 15.7909 7.79086 14 10 14C12.2091 14 14 15.7909 14 18C14 20.2091 12.2091 22 10 22C7.79086 22 6 20.2091 6 18Z" fill="#204EF4"/>
<path fill-rule="evenodd" clip-rule="evenodd" d="M0 10C0 8.34315 1.34315 7 3 7H5C6.65685 7 8 8.34315 8 10C8 11.6569 6.65685 13 5 13H3C1.34315 13 0 11.6569 0 10ZM3 9C2.44772 9 2 9.44772 2 10C2 10.5523 2.44772 11 3 11H5C5.55228 11 6 10.5523 6 10C6 9.44772 5.55228 9 5 9H3Z" fill="#204EF4"/>
<path fill-rule="evenodd" clip-rule="evenodd" d="M35 10C35 8.34315 36.3431 7 38 7H40C41.6569 7 43 8.34315 43 10C43 11.6569 41.6569 13 40 13H38C36.3431 13 35 11.6569 35 10ZM38 9C37.4477 9 37 9.44772 37 10C37 10.5523 37.4477 11 38 11H40C40.5523 11 41 10.5523 41 10C41 9.44772 40.5523 9 40 9H38Z" fill="#204EF4"/>
<path fill-rule="evenodd" clip-rule="evenodd" d="M33 16C31.8954 16 31 16.8954 31 18C31 19.1046 31.8954 20 33 20C34.1046 20 35 19.1046 35 18C35 16.8954 34.1046 16 33 16ZM29 18C29 15.7909 30.7909 14 33 14C35.2091 14 37 15.7909 37 18C37 20.2091 35.2091 22 33 22C30.7909 22 29 20.2091 29 18Z" fill="#204EF4"/>
<path fill-rule="evenodd" clip-rule="evenodd" d="M2 16C2 13.2386 4.23858 11 7 11H36C38.7614 11 41 13.2386 41 16V23C41 25.7614 38.7614 28 36 28H7C4.23858 28 2 25.7614 2 23V16ZM7 13C5.34315 13 4 14.3431 4 16V23C4 24.6569 5.34315 26 7 26H36C37.6569 26 39 24.6569 39 23V16C39 14.3431 37.6569 13 36 13H7Z" fill="#204EF4"/>
<path fill-rule="evenodd" clip-rule="evenodd" d="M8.25287 2.31262C8.57183 0.957601 9.78101 0 11.1731 0H31.3794C32.7222 0 33.9015 0.892287 34.2665 2.18451L36.603 10.4563C36.9635 11.7327 36.0046 13 34.6783 13H8.26261C6.97284 13 6.0203 11.7972 6.31582 10.5417L8.25287 2.31262ZM11.1731 2C10.709 2 10.306 2.3192 10.1997 2.77087L8.26261 11L34.6783 11L32.3418 2.72817C32.2201 2.29743 31.827 2 31.3794 2H11.1731Z" fill="#204EF4"/>
</svg>
