<svg width="46" height="43" viewBox="0 0 46 43" fill="none" xmlns="http://www.w3.org/2000/svg">
<path fill-rule="evenodd" clip-rule="evenodd" d="M44.8168 17.5513C45.3408 17.726 45.6239 18.2923 45.4493 18.8163C44.85 20.6141 43.6165 21.8491 41.822 22.4491C41.2982 22.6242 40.7316 22.3415 40.5565 21.8177C40.3814 21.294 40.6641 20.7274 41.1879 20.5523C42.3851 20.152 43.1512 19.3858 43.5519 18.1838C43.7266 17.6599 44.2929 17.3767 44.8168 17.5513ZM36.9463 25.105C37.4403 25.3519 37.6406 25.9526 37.3937 26.4466C36.6022 28.0304 35.6571 29.3915 34.3539 30.5576C33.0531 31.7215 31.4373 32.6537 29.3504 33.4361C28.8333 33.63 28.2569 33.368 28.063 32.8509C27.8691 32.3337 28.1312 31.7573 28.6483 31.5635C30.5618 30.846 31.9462 30.0282 33.0203 29.0671C34.0921 28.1081 34.8967 26.9691 35.6047 25.5525C35.8516 25.0585 36.4522 24.8581 36.9463 25.105Z" fill="#204EF4"/>
<path fill-rule="evenodd" clip-rule="evenodd" d="M9.71119 8.38536C9.90067 8.14219 10.1917 8 10.5 8C12.4958 8 13.7903 8.74106 14.5658 9.69202C14.8898 10.0893 15.11 10.5071 15.2549 10.8925C15.9635 10.762 16.7407 10.6675 17.3211 10.6057C18.5083 10.4791 19.5 11.4199 19.5 12.5777V14L29.0017 13.9998V13.4224C29.0017 12.3495 29.8968 11.3502 31.1092 11.4825C34.4252 11.8441 37.1526 13.7891 39.0294 16.246C40.9011 18.6962 42.0017 21.7486 42.0017 24.4994C42.0017 29.4262 38.6662 33.6435 33.8106 36.2155C33.6671 37.317 33.1877 38.6454 32.5751 39.7464C32.1997 40.4211 31.7402 41.0738 31.2139 41.5716C30.7033 42.0544 30.0126 42.5 29.1913 42.5C28.6375 42.5 28.1065 42.2777 27.6727 42.0194C27.2213 41.7506 26.7801 41.3859 26.3844 40.9766C25.817 40.3896 25.279 39.6426 24.9401 38.8448C23.9807 38.9467 22.9995 38.9994 22.0017 38.9994C21.3697 38.9994 20.7445 38.9783 20.1272 38.9369C19.8938 39.4511 19.5846 40.0884 19.212 40.6579C18.9319 41.0861 18.584 41.5279 18.1587 41.8706C17.7278 42.2178 17.1693 42.5 16.5 42.5C15.6849 42.5 14.9936 42.1304 14.4579 41.6701C13.9227 41.2102 13.4809 40.6097 13.1331 40.0023C12.603 39.0767 12.2112 37.9906 12.0647 37.0948C8.83332 35.7565 6.13481 33.769 4.34427 31.3334C4.3418 31.3319 4.3367 31.3289 4.32801 31.325C4.2947 31.31 4.22508 31.2879 4.09553 31.2732C3.89498 31.2506 3.71061 31.2546 3.46974 31.2598C3.33259 31.2628 3.17713 31.2662 2.98994 31.2653C2.59089 31.2633 1.94804 31.2418 1.40728 30.8953C0.75717 30.4788 0.50034 29.7812 0.50034 29C0.50034 28.9181 0.498278 28.6597 0.495342 28.2918C0.490722 27.7127 0.483936 26.8623 0.479611 26.0013C0.476103 25.3028 0.47426 24.6017 0.476696 24.0481C0.477913 23.7718 0.480209 23.5285 0.48401 23.3392C0.487253 23.1777 0.492195 22.9892 0.507546 22.8711C0.580151 22.3125 1.02616 22.0578 1.12461 22.0021C1.29193 21.9075 1.47327 21.8459 1.61108 21.8046C1.89142 21.7208 2.23935 21.6514 2.52681 21.5941L2.53887 21.5917C2.7772 21.5442 2.98102 21.5035 3.14616 21.4637C3.99238 18.3913 5.68461 15.6382 8.7928 13.6033C8.33536 12.2747 8.20532 10.318 9.71119 8.38536ZM11.0062 10.0225C10.1368 11.4492 10.5297 12.7928 10.9314 13.5117C11.1984 13.9896 11.0315 14.5935 10.5568 14.8664C7.33621 16.7181 5.72416 19.339 4.97087 22.3914C4.90353 22.6643 4.74874 22.8462 4.63974 22.9478C4.52932 23.0508 4.41547 23.1188 4.33333 23.1619C4.17043 23.2472 3.99428 23.3049 3.85519 23.3449C3.58465 23.4228 3.25186 23.489 2.9719 23.5448C2.95773 23.5476 2.94368 23.5504 2.92979 23.5532C2.7604 23.5869 2.60985 23.6174 2.47965 23.6463C2.47832 23.7688 2.47734 23.9066 2.47668 24.0569C2.47428 24.6009 2.47609 25.2945 2.47959 25.9912C2.4838 26.8296 2.49053 27.6794 2.49518 28.2659C2.4982 28.6464 2.50034 28.9161 2.50034 29C2.50034 29.1147 2.51024 29.1838 2.51963 29.2225C2.53691 29.2274 2.56117 29.2333 2.59401 29.239C2.69081 29.2558 2.82015 29.2644 2.99971 29.2653C3.07265 29.2657 3.16481 29.2639 3.26913 29.2618C3.57422 29.2559 3.98334 29.2478 4.32002 29.2859C4.81845 29.3422 5.49312 29.5194 5.95464 30.1474C7.58085 32.3601 10.1537 34.2306 13.3592 35.4579C13.7462 35.606 14.0017 35.9775 14.0017 36.3918C14.0017 36.9086 14.2987 38.0132 14.8686 39.0084C15.1453 39.4915 15.4531 39.8883 15.7613 40.1531C16.0691 40.4176 16.3151 40.5 16.5 40.5C16.5807 40.5 16.7097 40.4697 16.9039 40.3133C17.1036 40.1523 17.3183 39.8993 17.5384 39.563C17.9237 38.974 18.2276 38.2888 18.4765 37.7275C18.5155 37.6396 18.5531 37.5547 18.5895 37.4737C18.7648 37.0836 19.1688 36.8482 19.5946 36.888C20.3818 36.9615 21.1852 36.9994 22.0017 36.9994C23.1992 36.9994 24.3687 36.9177 25.4997 36.7621C26.0205 36.6904 26.5078 37.0342 26.615 37.5488C26.7458 38.1765 27.208 38.9509 27.8224 39.5866C28.1212 39.8957 28.426 40.1402 28.696 40.301C28.9837 40.4723 29.1494 40.5 29.1913 40.5C29.2744 40.5 29.4938 40.4456 29.8396 40.1185C30.1697 39.8063 30.513 39.3391 30.8274 38.774C31.4711 37.617 31.8547 36.3085 31.8547 35.5817C31.8547 35.2016 32.0702 34.8543 32.4108 34.6856C37.1284 32.3488 40.0017 28.579 40.0017 24.4994C40.0017 22.2408 39.0798 19.6065 37.4401 17.4601C35.8281 15.3498 33.5952 13.8019 31.0017 13.4833V14.9998C31.0017 15.552 30.554 15.9997 30.0017 15.9998L18.5 16C18.2348 16 17.9804 15.8946 17.7929 15.7071C17.6054 15.5196 17.5 15.2652 17.5 15V12.5979C16.5864 12.6961 15.4331 12.853 14.7939 13.0483C14.4912 13.1408 14.1626 13.0845 13.9079 12.8966C13.6532 12.7087 13.5025 12.4113 13.5017 12.0948C13.5017 12.0942 13.5015 12.082 13.4991 12.058C13.4967 12.0341 13.4926 12.0023 13.4857 11.9636C13.472 11.8859 13.4486 11.7876 13.4114 11.6766C13.3368 11.4537 13.2125 11.1971 13.0158 10.956C12.6967 10.5646 12.1161 10.1257 11.0062 10.0225ZM2.53605 29.2646C2.53538 29.2656 2.53161 29.2607 2.52674 29.247C2.53429 29.2568 2.53673 29.2637 2.53605 29.2646Z" fill="#204EF4"/>
<path d="M12 22C12 22.5523 11.5523 23 11 23C10.4477 23 10 22.5523 10 22C10 21.4477 10.4477 21 11 21C11.5523 21 12 21.4477 12 22Z" fill="#204EF4"/>
<path fill-rule="evenodd" clip-rule="evenodd" d="M24 2C21.7909 2 20 3.79086 20 6C20 8.20914 21.7909 10 24 10C26.2091 10 28 8.20914 28 6C28 3.79086 26.2091 2 24 2ZM18 6C18 2.68629 20.6863 0 24 0C27.3137 0 30 2.68629 30 6C30 9.31371 27.3137 12 24 12C20.6863 12 18 9.31371 18 6Z" fill="#204EF4"/>
</svg>
