<svg width="42" height="41" viewBox="0 0 42 41" fill="none" xmlns="http://www.w3.org/2000/svg">
<path d="M12.3799 28.6201C12.3799 29.5257 12.2233 30.3213 11.9102 31.0068C11.597 31.6882 11.1484 32.2129 10.5645 32.5811C9.9847 32.945 9.31608 33.127 8.55859 33.127C7.80957 33.127 7.14095 32.945 6.55273 32.5811C5.96875 32.2129 5.51595 31.6903 5.19434 31.0132C4.87695 30.3361 4.71615 29.5553 4.71191 28.6709V28.1504C4.71191 27.249 4.87061 26.4535 5.18799 25.7637C5.5096 25.0739 5.96029 24.547 6.54004 24.1831C7.12402 23.8149 7.79264 23.6309 8.5459 23.6309C9.29915 23.6309 9.96566 23.8128 10.5454 24.1768C11.1294 24.5365 11.5801 25.057 11.8975 25.7383C12.2148 26.4154 12.3757 27.2046 12.3799 28.106V28.6201ZM10.7739 28.1377C10.7739 27.1136 10.5793 26.3286 10.1899 25.7827C9.80485 25.2368 9.25684 24.9639 8.5459 24.9639C7.85189 24.9639 7.30811 25.2368 6.91455 25.7827C6.52523 26.3244 6.32633 27.0924 6.31787 28.0869V28.6201C6.31787 29.6357 6.51465 30.4207 6.9082 30.9751C7.30599 31.5295 7.85612 31.8066 8.55859 31.8066C9.26953 31.8066 9.81543 31.5358 10.1963 30.9941C10.5814 30.4525 10.7739 29.6611 10.7739 28.6201V28.1377Z" fill="#204EF4"/>
<path d="M15.5854 29.5659V33H13.9795V23.7578H17.5151C18.5477 23.7578 19.3665 24.0265 19.9717 24.564C20.5811 25.1014 20.8857 25.8123 20.8857 26.6968C20.8857 27.6024 20.5874 28.307 19.9907 28.8105C19.3983 29.3141 18.5667 29.5659 17.4961 29.5659H15.5854ZM15.5854 28.2773H17.5151C18.0864 28.2773 18.5223 28.144 18.8228 27.8774C19.1232 27.6066 19.2734 27.2173 19.2734 26.7095C19.2734 26.2101 19.1211 25.8123 18.8164 25.5161C18.5117 25.2157 18.0928 25.0612 17.5596 25.0527H15.5854V28.2773Z" fill="#204EF4"/>
<path d="M27.6968 28.874H23.9009V31.7178H28.3379V33H22.2949V23.7578H28.2935V25.0527H23.9009V27.6045H27.6968V28.874Z" fill="#204EF4"/>
<path d="M36.9771 33H35.3711L31.2515 26.4429V33H29.6455V23.7578H31.2515L35.3838 30.3403V23.7578H36.9771V33Z" fill="#204EF4"/>
<path fill-rule="evenodd" clip-rule="evenodd" d="M0 17C0 15.3431 1.34315 14 3 14H39C40.6569 14 42 15.3431 42 17V38C42 39.6569 40.6569 41 39 41H3C1.34315 41 0 39.6569 0 38V17ZM3 16C2.44772 16 2 16.4477 2 17V38C2 38.5523 2.44772 39 3 39H39C39.5523 39 40 38.5523 40 38V17C40 16.4477 39.5523 16 39 16H3Z" fill="#204EF4"/>
<path fill-rule="evenodd" clip-rule="evenodd" d="M20.2929 1.2928C20.6834 0.902276 21.3166 0.902276 21.7071 1.2928L34.2071 13.7928C34.5976 14.1833 34.5976 14.8165 34.2071 15.207C33.8166 15.5975 33.1834 15.5975 32.7929 15.207L21 3.41412L9.20711 15.207C8.81658 15.5975 8.18342 15.5975 7.79289 15.207C7.40237 14.8165 7.40237 14.1833 7.79289 13.7928L20.2929 1.2928Z" fill="#204EF4"/>
<path d="M23 2C23 3.10457 22.1046 4 21 4C19.8954 4 19 3.10457 19 2C19 0.895431 19.8954 0 21 0C22.1046 0 23 0.895431 23 2Z" fill="#204EF4"/>
<path d="M6 18.5C6 19.3284 5.32843 20 4.5 20C3.67157 20 3 19.3284 3 18.5C3 17.6716 3.67157 17 4.5 17C5.32843 17 6 17.6716 6 18.5Z" fill="#204EF4"/>
<path d="M39 18.5C39 19.3284 38.3284 20 37.5 20C36.6716 20 36 19.3284 36 18.5C36 17.6716 36.6716 17 37.5 17C38.3284 17 39 17.6716 39 18.5Z" fill="#204EF4"/>
</svg>
