<svg width="48" height="39" viewBox="0 0 48 39" fill="none" xmlns="http://www.w3.org/2000/svg">
<path fill-rule="evenodd" clip-rule="evenodd" d="M28 13C28 12.4477 28.4477 12 29 12H35C35.5523 12 36 12.4477 36 13V38C36 38.5523 35.5523 39 35 39H29C28.4477 39 28 38.5523 28 38V13ZM30 14V37H34V14H30Z" fill="#624BFF"/>
<path fill-rule="evenodd" clip-rule="evenodd" d="M28 1C28 0.447715 28.4477 0 29 0H35C35.5523 0 36 0.447715 36 1V4C36 4.55228 35.5523 5 35 5H29C28.4477 5 28 4.55228 28 4V1ZM30 2V3H34V2H30Z" fill="#624BFF"/>
<path fill-rule="evenodd" clip-rule="evenodd" d="M28 4C28 3.44772 28.4477 3 29 3H36C36.1414 3 36.2812 3.02999 36.4102 3.08799L36 4C36.4102 3.08799 36.41 3.08792 36.4102 3.08799L36.4119 3.08876L36.4153 3.09032L36.4274 3.09577L36.4714 3.11589C36.5094 3.13333 36.5644 3.15876 36.6346 3.1917C36.775 3.25757 36.9763 3.35358 37.2242 3.47591C37.7194 3.72029 38.4033 4.07116 39.1594 4.49794C40.6456 5.33687 42.508 6.52252 43.727 7.81341C44.8061 8.95607 45.7369 10.7098 46.3772 12.0919C46.7046 12.7987 46.9697 13.4388 47.153 13.9025C47.2448 14.1347 47.3164 14.3234 47.3655 14.4551C47.39 14.521 47.4089 14.5727 47.4219 14.6084L47.4369 14.65L47.441 14.6615L47.4421 14.6648L47.4425 14.6658C47.4426 14.666 47.4427 14.6665 46.5 15L47.4425 14.6658C47.5973 15.1032 47.4311 15.5902 47.0408 15.8411C46.6507 16.092 46.1392 16.0416 45.8055 15.7195L28 4ZM45.8055 15.7195L45.8048 15.7188L45.8005 15.7146L45.7806 15.6957C45.7624 15.6784 45.7345 15.6521 45.6975 15.6175C45.6235 15.5484 45.5131 15.4467 45.3713 15.3196C45.0873 15.0651 44.6787 14.7101 44.1843 14.312C43.1874 13.5093 41.8754 12.5587 40.5512 11.8936C39.3466 11.2886 38.3615 11.0765 37 11.0185V13C37 13.5523 36.5523 14 36 14H29C28.6299 14 28.3067 13.7989 28.1338 13.5H25C24.4477 13.5 24 13.0523 24 12.5V5.5C24 4.94772 24.4477 4.5 25 4.5H28V4L45.8055 15.7195ZM30 5V5.5C30 6.05228 29.5523 6.5 29 6.5H26V11.5H29C29.3701 11.5 29.6933 11.7011 29.8662 12H35V10C35 9.44772 35.4477 9 36 9C38.0775 9 39.5778 9.16664 41.4488 10.1064C42.3063 10.5371 43.1416 11.0627 43.8951 11.5908C43.3986 10.6654 42.8406 9.78769 42.273 9.18659C41.2729 8.12757 39.6353 7.06321 38.1762 6.23962C37.4597 5.83514 36.8097 5.50162 36.3392 5.26942C36.1042 5.15347 35.9147 5.06314 35.7849 5.00225C35.7833 5.0015 35.7817 5.00075 35.7801 5H30Z" fill="#624BFF"/>
<path fill-rule="evenodd" clip-rule="evenodd" d="M4 9C2.89543 9 2 9.89543 2 11V31C2 32.1046 2.89543 33 4 33H28.5C29.0523 33 29.5 33.4477 29.5 34C29.5 34.5523 29.0523 35 28.5 35H4C1.79086 35 0 33.2091 0 31V11C0 8.79086 1.79086 7 4 7H20.5C21.0523 7 21.5 7.44772 21.5 8C21.5 8.55228 21.0523 9 20.5 9H4Z" fill="#624BFF"/>
<path fill-rule="evenodd" clip-rule="evenodd" d="M20 6C20 4.34315 21.3431 3 23 3C24.6569 3 26 4.34315 26 6V12C26 13.6569 24.6569 15 23 15C21.3431 15 20 13.6569 20 12V6ZM23 5C22.4477 5 22 5.44772 22 6V12C22 12.5523 22.4477 13 23 13C23.5523 13 24 12.5523 24 12V6C24 5.44772 23.5523 5 23 5Z" fill="#624BFF"/>
<path fill-rule="evenodd" clip-rule="evenodd" d="M5 14C5 13.4477 5.44772 13 6 13H15C15.5523 13 16 13.4477 16 14V20C16 20.5523 15.5523 21 15 21H6C5.44772 21 5 20.5523 5 20V14ZM7 15V19H14V15H7ZM5 27.5C5 26.9477 5.44772 26.5 6 26.5H15C15.5523 26.5 16 26.9477 16 27.5C16 28.0523 15.5523 28.5 15 28.5H6C5.44772 28.5 5 28.0523 5 27.5Z" fill="#624BFF"/>
</svg>
