<svg width="52" height="55" viewBox="0 0 52 55" fill="none" xmlns="http://www.w3.org/2000/svg">
<path d="M28 20C28 27.732 21.732 34 14 34C6.26801 34 0 27.732 0 20C0 12.268 6.26801 6 14 6C21.732 6 28 12.268 28 20Z" fill="white"/>
<path fill-rule="evenodd" clip-rule="evenodd" d="M14 32C20.6274 32 26 26.6274 26 20C26 13.3726 20.6274 8 14 8C7.37258 8 2 13.3726 2 20C2 26.6274 7.37258 32 14 32ZM14 34C21.732 34 28 27.732 28 20C28 12.268 21.732 6 14 6C6.26801 6 0 12.268 0 20C0 27.732 6.26801 34 14 34Z" fill="#624BFF"/>
<path d="M15.9746 21.3975H13.541C13.5684 22.1904 13.7666 22.7829 14.1357 23.1748C14.5094 23.5667 15.0426 23.7627 15.7354 23.7627C16.2367 23.7627 16.7038 23.6875 17.1367 23.5371L17.3281 24.9316C16.7812 25.0638 16.2161 25.1299 15.6328 25.1299C14.4661 25.1299 13.5479 24.8018 12.8779 24.1455C12.208 23.4893 11.8548 22.5732 11.8184 21.3975H10.6426V20.4336H11.8184V19.5586H10.6426V18.5947H11.8252C11.8844 17.4326 12.2559 16.5303 12.9395 15.8877C13.623 15.2406 14.5413 14.917 15.6943 14.917C16.1774 14.917 16.722 14.9876 17.3281 15.1289L17.1367 16.5303C16.6719 16.3753 16.2093 16.2979 15.749 16.2979C15.0609 16.2979 14.5322 16.4938 14.1631 16.8857C13.7939 17.2777 13.5889 17.8473 13.5479 18.5947H15.9746V19.5586H13.541V20.4336H15.9746V21.3975Z" fill="#624BFF"/>
<path d="M52 20C52 27.732 45.732 34 38 34C30.268 34 24 27.732 24 20C24 12.268 30.268 6 38 6C45.732 6 52 12.268 52 20Z" fill="white"/>
<path fill-rule="evenodd" clip-rule="evenodd" d="M38 32C44.6274 32 50 26.6274 50 20C50 13.3726 44.6274 8 38 8C31.3726 8 26 13.3726 26 20C26 26.6274 31.3726 32 38 32ZM38 34C45.732 34 52 27.732 52 20C52 12.268 45.732 6 38 6C30.268 6 24 12.268 24 20C24 27.732 30.268 34 38 34Z" fill="#624BFF"/>
<path d="M36.4795 20.9121L36.5273 22.1152C36.5273 22.7305 36.3815 23.2318 36.0898 23.6191H40.8477L40.8408 25H33.6699V23.6191H34.2305C34.4082 23.5781 34.5449 23.4323 34.6406 23.1816C34.7409 22.9264 34.791 22.5915 34.791 22.1768L34.7432 20.9121H33.6426V19.5518H34.7021L34.6475 17.8975C34.6475 16.9769 34.9323 16.25 35.502 15.7168C36.0716 15.1836 36.819 14.917 37.7441 14.917C38.6693 14.917 39.3962 15.1654 39.9248 15.6621C40.4535 16.1589 40.7178 16.8265 40.7178 17.665H39.043C39.043 17.2321 38.9222 16.8971 38.6807 16.6602C38.4437 16.4186 38.111 16.2979 37.6826 16.2979C37.277 16.2979 36.9557 16.446 36.7188 16.7422C36.4863 17.0384 36.3701 17.4235 36.3701 17.8975L36.4316 19.5518H38.5576V20.9121H36.4795Z" fill="#624BFF"/>
<path d="M40 41C40 48.732 33.732 55 26 55C18.268 55 12 48.732 12 41C12 33.268 18.268 27 26 27C33.732 27 40 33.268 40 41Z" fill="white"/>
<path fill-rule="evenodd" clip-rule="evenodd" d="M26 53C32.6274 53 38 47.6274 38 41C38 34.3726 32.6274 29 26 29C19.3726 29 14 34.3726 14 41C14 47.6274 19.3726 53 26 53ZM26 55C33.732 55 40 48.732 40 41C40 33.268 33.732 27 26 27C18.268 27 12 33.268 12 41C12 48.732 18.268 55 26 55Z" fill="#624BFF"/>
<path d="M27.5986 43.4023C27.5986 43.015 27.4756 42.696 27.2295 42.4453C26.9834 42.1901 26.5732 41.9622 25.999 41.7617C25.4248 41.5566 24.9782 41.3675 24.6592 41.1943C23.5973 40.6247 23.0664 39.7816 23.0664 38.665C23.0664 37.9085 23.2965 37.2865 23.7568 36.7988C24.2171 36.3112 24.8415 36.0218 25.6299 35.9307V34.4404H26.7236V35.9443C27.5166 36.0583 28.1296 36.3955 28.5625 36.9561C28.9954 37.512 29.2119 38.2367 29.2119 39.1299H27.5576C27.5576 38.5557 27.4277 38.1045 27.168 37.7764C26.9128 37.4437 26.5641 37.2773 26.1221 37.2773C25.6846 37.2773 25.3428 37.3958 25.0967 37.6328C24.8506 37.8698 24.7275 38.2093 24.7275 38.6514C24.7275 39.0479 24.8483 39.3669 25.0898 39.6084C25.3359 39.8454 25.7507 40.071 26.334 40.2852C26.9173 40.4993 27.3753 40.6976 27.708 40.8799C28.0407 41.0622 28.321 41.2718 28.5488 41.5088C28.7767 41.7412 28.9521 42.0101 29.0752 42.3154C29.1982 42.6208 29.2598 42.9785 29.2598 43.3887C29.2598 44.1589 29.0228 44.7832 28.5488 45.2617C28.0794 45.7402 27.4232 46.0228 26.5801 46.1094V47.4424H25.4932V46.1162C24.5908 46.016 23.8958 45.6924 23.4082 45.1455C22.9251 44.5986 22.6836 43.874 22.6836 42.9717H24.3447C24.3447 43.5459 24.4883 43.9902 24.7754 44.3047C25.0671 44.6191 25.4772 44.7764 26.0059 44.7764C26.5254 44.7764 26.9196 44.651 27.1885 44.4004C27.4619 44.1497 27.5986 43.8171 27.5986 43.4023Z" fill="#624BFF"/>
<path fill-rule="evenodd" clip-rule="evenodd" d="M47.8882 53.9997C47.4538 54.3407 46.8484 54.2947 46.5362 53.8968L6.09133 2.36741C5.7791 1.9696 5.87817 1.37068 6.31262 1.02969C6.74706 0.688699 7.35237 0.73476 7.6646 1.13257L48.1095 52.662C48.4217 53.0598 48.3226 53.6587 47.8882 53.9997Z" fill="#624BFF"/>
</svg>
