<svg width="56" height="68" viewBox="0 0 56 68" fill="none" xmlns="http://www.w3.org/2000/svg">
<path fill-rule="evenodd" clip-rule="evenodd" d="M11.2246 41.6864C11.95 42.0866 12.2136 42.999 11.8134 43.7244L5.04074 55.9998H13C13.5315 55.9998 14.0234 56.2811 14.2929 56.7392L17.9812 63.0093L24.6976 51.2556C25.1087 50.5363 26.0249 50.2864 26.7442 50.6974C27.4635 51.1084 27.7134 52.0247 27.3024 52.744L19.3024 66.744C19.037 67.2084 18.5443 67.4964 18.0094 67.4997C17.4745 67.5031 16.9783 67.2214 16.7071 66.7603L12.1421 58.9998H2.5C1.96931 58.9998 1.47811 58.7194 1.20831 58.2624C0.938511 57.8054 0.930268 57.2398 1.18663 56.7752L9.18663 42.2752C9.58683 41.5498 10.4993 41.2862 11.2246 41.6864Z" fill="#624BFF"/>
<path fill-rule="evenodd" clip-rule="evenodd" d="M45.2757 41.6864C44.5503 42.0866 44.2867 42.999 44.6869 43.7244L51.4596 55.9998H43.5003C42.9688 55.9998 42.4769 56.2811 42.2074 56.7392L38.5191 63.0093L31.8027 51.2556C31.3916 50.5363 30.4754 50.2864 29.7561 50.6974C29.0368 51.1084 28.7869 52.0247 29.1979 52.744L37.1979 66.744C37.4633 67.2084 37.956 67.4964 38.4909 67.4997C39.0258 67.5031 39.522 67.2214 39.7932 66.7603L44.3582 58.9998H54.0003C54.531 58.9998 55.0222 58.7194 55.292 58.2624C55.5618 57.8054 55.57 57.2398 55.3137 56.7752L47.3137 42.2752C46.9135 41.5498 46.001 41.2862 45.2757 41.6864Z" fill="#624BFF"/>
<path fill-rule="evenodd" clip-rule="evenodd" d="M25.4922 5.50088C23.4623 7.15218 20.8243 7.85903 18.2407 7.44392C16.7517 7.20468 15.2992 8.04328 14.7619 9.45241C13.8296 11.8975 11.8984 13.8286 9.45339 14.7609C8.04426 15.2983 7.20565 16.7508 7.44489 18.2398C7.86 20.8234 7.15316 23.4614 5.50185 25.4913C4.55017 26.6612 4.55017 28.3384 5.50185 29.5083C7.15316 31.5382 7.86 34.1762 7.44489 36.7598C7.20565 38.2488 8.04426 39.7013 9.45339 40.2386C11.8984 41.1709 13.8296 43.1021 14.7619 45.5471C15.2992 46.9562 16.7517 47.7948 18.2407 47.5556C20.8243 47.1405 23.4623 47.8473 25.4922 49.4986C26.6621 50.4503 28.3393 50.4503 29.5092 49.4986C31.5391 47.8473 34.1771 47.1405 36.7607 47.5556C38.2497 47.7948 39.7022 46.9562 40.2395 45.5471C41.1719 43.1021 43.103 41.1709 45.548 40.2386C46.9572 39.7013 47.7958 38.2488 47.5565 36.7598C47.1414 34.1762 47.8483 31.5382 49.4996 29.5083C50.4513 28.3384 50.4513 26.6612 49.4996 25.4913C47.8483 23.4614 47.1414 20.8234 47.5565 18.2398C47.7958 16.7508 46.9572 15.2983 45.548 14.7609C43.103 13.8286 41.1719 11.8975 40.2395 9.45241C39.7022 8.04328 38.2497 7.20468 36.7607 7.44392C34.1771 7.85903 31.5391 7.15218 29.5092 5.50088C28.3393 4.54919 26.6621 4.54919 25.4922 5.50088ZM31.4024 3.17366C29.1298 1.32493 25.8717 1.32493 23.5991 3.17366C22.2323 4.28548 20.4562 4.7614 18.7166 4.48191C15.8241 4.01717 13.0025 5.64621 11.9588 8.38356C11.331 10.0298 10.0308 11.3301 8.38453 11.9578C5.64719 13.0016 4.01814 15.8232 4.48288 18.7157C4.76238 20.4552 4.28646 22.2314 3.17463 23.5981C1.32591 25.8707 1.32591 29.1288 3.17463 31.4014C4.28646 32.7682 4.76238 34.5443 4.48288 36.2839C4.01814 39.1764 5.64719 41.998 8.38453 43.0417C10.0308 43.6695 11.331 44.9697 11.9588 46.6159C13.0025 49.3533 15.8241 50.9823 18.7166 50.5176C20.4562 50.2381 22.2323 50.714 23.5991 51.8258C25.8717 53.6746 29.1298 53.6746 31.4024 51.8258C32.7691 50.714 34.5453 50.2381 36.2848 50.5176C39.1773 50.9823 41.9989 49.3533 43.0427 46.6159C43.6704 44.9697 44.9706 43.6695 46.6169 43.0417C49.3542 41.998 50.9833 39.1764 50.5185 36.2839C50.239 34.5443 50.715 32.7682 51.8268 31.4014C53.6755 29.1288 53.6755 25.8707 51.8268 23.5981C50.715 22.2314 50.239 20.4552 50.5185 18.7157C50.9833 15.8232 49.3542 13.0016 46.6169 11.9578C44.9706 11.3301 43.6704 10.0298 43.0427 8.38356C41.9989 5.64621 39.1773 4.01717 36.2848 4.48191C34.5453 4.7614 32.7691 4.28548 31.4024 3.17366Z" fill="#624BFF"/>
<path fill-rule="evenodd" clip-rule="evenodd" d="M28 40C34.6274 40 40 34.6274 40 28C40 21.3726 34.6274 16 28 16C21.3726 16 16 21.3726 16 28C16 34.6274 21.3726 40 28 40ZM28 43C36.2843 43 43 36.2843 43 28C43 19.7157 36.2843 13 28 13C19.7157 13 13 19.7157 13 28C13 36.2843 19.7157 43 28 43Z" fill="#624BFF"/>
</svg>
