<svg width="47" height="40" viewBox="0 0 47 40" fill="none" xmlns="http://www.w3.org/2000/svg">
<path fill-rule="evenodd" clip-rule="evenodd" d="M0 17.9849C0 15.2234 2.23858 12.9849 5 12.9849H34C36.7614 12.9849 39 15.2234 39 17.9849V34.9849C39 37.7463 36.7614 39.9849 34 39.9849H5C2.23858 39.9849 0 37.7463 0 34.9849V17.9849ZM5 14.9849C3.34315 14.9849 2 16.328 2 17.9849V34.9849C2 36.6417 3.34315 37.9849 5 37.9849H34C35.6569 37.9849 37 36.6417 37 34.9849V17.9849C37 16.328 35.6569 14.9849 34 14.9849H5Z" fill="#624BFF"/>
<path fill-rule="evenodd" clip-rule="evenodd" d="M7.07068 5.86379C7.37861 3.11959 9.85285 1.1446 12.597 1.45253L41.4162 4.68631C44.1604 4.99424 46.1354 7.46848 45.8274 10.2127L43.9318 27.1067C43.6233 29.8561 41.1281 31.8234 38.3892 31.5161L38.6122 29.5286C40.264 29.7139 41.7601 28.5249 41.9443 26.8836L43.462 13.3573L8.72004 9.10055L8.21553 13.5966C8.15395 14.1455 7.6591 14.5405 7.11026 14.4789C6.56142 14.4173 6.16642 13.9224 6.22801 13.3736L7.07068 5.86379ZM8.94307 7.11292L43.6851 11.3697L43.8399 9.98966C44.0247 8.34314 42.8397 6.8586 41.1932 6.67384L12.374 3.44005C10.7275 3.2553 9.24296 4.44029 9.05821 6.08681L8.94307 7.11292Z" fill="#624BFF"/>
<path fill-rule="evenodd" clip-rule="evenodd" d="M6 19.9849C6 19.4326 6.44772 18.9849 7 18.9849H16C16.5523 18.9849 17 19.4326 17 19.9849V25.9849C17 26.5371 16.5523 26.9849 16 26.9849H7C6.44772 26.9849 6 26.5371 6 25.9849V19.9849ZM8 20.9849V24.9849H15V20.9849H8Z" fill="#624BFF"/>
<path fill-rule="evenodd" clip-rule="evenodd" d="M6 32.9849C6 32.4326 6.44772 31.9849 7 31.9849H16C16.5523 31.9849 17 32.4326 17 32.9849C17 33.5371 16.5523 33.9849 16 33.9849H7C6.44772 33.9849 6 33.5371 6 32.9849Z" fill="#624BFF"/>
</svg>
