<svg width="70" height="54" viewBox="0 0 70 54" fill="none" xmlns="http://www.w3.org/2000/svg">
<path fill-rule="evenodd" clip-rule="evenodd" d="M36.1154 3.50091C35.1077 2.98996 33.9153 2.99689 32.9136 3.51951L3.85811 18.6789C3.51178 18.8596 3.49713 19.3498 3.83205 19.5509L7.81487 21.9417L14.7661 26.0293L32.7481 36.7142C33.8367 37.3611 35.1897 37.3695 36.2863 36.7363L66.0527 19.5472C66.3965 19.3487 66.3829 18.8478 66.0288 18.6683L36.1154 3.50091ZM5.54868 24.0804L2.28802 22.123C-0.0564082 20.7157 0.0461349 17.284 2.47041 16.0191L31.5259 0.859757C33.3862 -0.110835 35.6006 -0.123703 37.4721 0.825204L67.3855 15.9926C69.8644 17.2495 69.9598 20.7553 67.5529 22.1452L56.9999 28.2392V38.8431C56.9999 42.863 55.403 46.7182 52.5606 49.5606C49.7181 52.4031 45.8629 54 41.843 54H27.6568C23.6369 54 19.7817 52.4031 16.9392 49.5606C14.0968 46.7182 12.4999 42.863 12.4999 38.8431V28.1769L8.54868 25.8535V37C8.54868 37.8284 7.8771 38.5 7.04868 38.5C6.22025 38.5 5.54868 37.8284 5.54868 37V24.0804ZM15.4999 29.955L31.2156 39.2933C33.2373 40.4945 35.75 40.5102 37.7865 39.3342L53.9999 29.9716V38.8431C53.9999 42.0673 52.7191 45.1595 50.4392 47.4393C48.1594 49.7192 45.0672 51 41.843 51H27.6568C24.4326 51 21.3404 49.7192 19.0606 47.4393C16.7807 45.1595 15.4999 42.0673 15.4999 38.8431V29.955Z" fill="#624BFF"/>
<path d="M10 37C10 38.6569 8.65685 40 7 40C5.34315 40 4 38.6569 4 37C4 35.3431 5.34315 34 7 34C8.65685 34 10 35.3431 10 37Z" fill="#624BFF"/>
</svg>
