<svg width="56" height="50" viewBox="0 0 56 50" fill="none" xmlns="http://www.w3.org/2000/svg">
<path fill-rule="evenodd" clip-rule="evenodd" d="M45.3624 10.8744C44.5582 7.56739 42.4683 5.20366 41.1129 4.20974L42.887 1.79053C45.0274 3.36011 48.2698 7.19825 48.6559 12.5842C48.7858 14.3967 48.5894 16.3648 47.9303 18.4518C47.2857 20.4932 46.9215 22.0221 46.7714 23.1911C46.5106 25.2235 46.9138 25.9468 47.4062 26.4338C47.7247 26.7488 48.175 27.0496 48.8442 27.4194C49.1497 27.5882 49.4776 27.7592 49.8449 27.9507C49.875 27.9664 49.9054 27.9823 49.9362 27.9983C50.3346 28.2061 50.7703 28.4343 51.2284 28.6889C54.1087 30.289 55.5078 33.788 55.4371 36.9709C55.365 40.2166 53.7452 43.6662 49.9743 44.9231C46.3382 46.1352 43.3328 44.8926 41.4102 42.5854C39.5628 40.3685 38.7218 37.207 39.0074 34.3509C39.1958 32.4666 38.667 31.4604 38.0769 30.9037C37.4359 30.2989 36.4834 30.0001 35.5 30.0001V27.0001C37.0166 27.0001 38.7891 27.4513 40.1356 28.7215C41.5329 30.0398 42.2541 32.0337 41.9925 34.6494C41.7782 36.7932 42.4372 39.1317 43.7148 40.6648C44.9171 42.1076 46.6618 42.865 49.0256 42.0771C51.2547 41.3341 52.385 39.2837 52.4378 36.9043C52.4921 34.4623 51.3912 32.2112 49.7715 31.3114C49.351 31.0777 48.9461 30.8655 48.5487 30.6581C48.5163 30.6413 48.484 30.6244 48.4516 30.6075C48.0922 30.4202 47.7323 30.2325 47.3933 30.0452C46.6624 29.6413 45.917 29.1803 45.2967 28.5669C44.2335 27.5155 43.7226 26.2105 43.6926 24.4907C41.9763 24.2672 40.4017 23.3979 39.3295 22.0655C37.8513 20.2283 37.414 17.6253 38.6293 14.8909C39.6465 12.6021 41.4281 11.488 43.1922 11.074C43.9364 10.8994 44.6763 10.8479 45.3624 10.8744ZM45.6908 13.9062C45.1368 13.8428 44.4982 13.8491 43.8776 13.9947C42.8918 14.226 41.9535 14.7981 41.3707 16.1093C40.586 17.8749 40.9324 19.272 41.6669 20.1848C42.232 20.8872 43.0767 21.3677 44.0129 21.5065C44.2415 20.3654 44.5929 19.058 45.0696 17.5484C45.478 16.255 45.6657 15.0386 45.6908 13.9062Z" fill="#624BFF"/>
<path fill-rule="evenodd" clip-rule="evenodd" d="M29 3H12C9.79086 3 8 4.79086 8 7V47H33V7C33 4.79086 31.2091 3 29 3ZM12 0C8.13401 0 5 3.13401 5 7V50H36V7C36 3.13401 32.866 0 29 0H12Z" fill="#624BFF"/>
<path fill-rule="evenodd" clip-rule="evenodd" d="M41 50H0V47H41V50Z" fill="#624BFF"/>
<path fill-rule="evenodd" clip-rule="evenodd" d="M14 9V14H27V9H14ZM12 6C11.4477 6 11 6.44771 11 7V16C11 16.5523 11.4477 17 12 17H29C29.5523 17 30 16.5523 30 16V7C30 6.44772 29.5523 6 29 6H12Z" fill="#624BFF"/>
</svg>
