<svg width="39" height="44" viewBox="0 0 39 44" fill="none" xmlns="http://www.w3.org/2000/svg">
<path fill-rule="evenodd" clip-rule="evenodd" d="M5.5 12.468C3.567 12.468 2 14.035 2 15.968C2 17.901 3.567 19.468 5.5 19.468C6.3683 19.468 7.1605 19.1531 7.77248 18.6301C8.52534 17.9866 9 17.0333 9 15.968C9 14.035 7.433 12.468 5.5 12.468ZM0 15.968C0 12.9305 2.46243 10.468 5.5 10.468C8.30982 10.468 10.6275 12.5751 10.9593 15.2953L29.8996 23.5513C30.097 23.6374 30.2614 23.7849 30.3682 23.9719C30.7603 24.658 31.1877 25.8252 30.925 26.9778C30.7858 27.5882 30.455 28.1735 29.8697 28.6281C29.2986 29.0717 28.5451 29.3452 27.624 29.4603C27.4362 29.4838 27.2455 29.4534 27.0742 29.3728L23.7582 27.8123C24.3041 28.3664 25.096 29.2963 25.813 30.3973C26.5271 31.494 27.2192 32.8396 27.4686 34.2021C27.5861 34.4655 28.0852 35.2086 29.2425 35.4979C29.2674 35.5041 29.2919 35.5112 29.3162 35.5193L32.3162 36.5193C32.4635 36.5684 32.5973 36.6511 32.7071 36.7609C33.1197 37.1735 33.6557 37.8866 33.9082 38.7318C34.1684 39.6028 34.1358 40.6945 33.2721 41.6083C32.9774 42.0094 32.4699 42.4373 31.7795 42.658C31.0336 42.8965 30.1371 42.8731 29.1625 42.4156C27.9625 42.1221 26.1796 41.4295 24.4709 40.2545C22.7842 39.0947 21.1109 37.423 20.1864 35.1384C20.0896 35.1037 19.9293 35.0606 19.6867 35.0391C19.1911 34.9952 18.4134 35.051 17.3162 35.4167C17.2143 35.4507 17.1075 35.468 17 35.468H14.5V40.968C14.5 41.0755 14.4827 41.1823 14.4487 41.2842C14.1638 42.1389 13.0844 43.468 11 43.468C10.43 43.468 9.55577 43.3859 8.78628 43.1089C8.09031 42.8584 7 42.2539 7 40.968V34.468C7 33.6008 7.196 32.2946 7.82749 31.1669C8.48548 29.9919 9.65639 28.968 11.5 28.968H16.5858L8.31285 20.6951C7.48971 21.1857 6.52709 21.468 5.5 21.468C2.46243 21.468 0 19.0056 0 15.968ZM9.81932 19.3731L19.7071 29.2609C19.9931 29.5469 20.0787 29.977 19.9239 30.3507C19.7691 30.7244 19.4045 30.968 19 30.968H11.5C10.5436 30.968 9.96452 31.4441 9.57251 32.1441C9.154 32.8915 9 33.8352 9 34.468V40.964C9.00415 40.9695 9.01161 40.9785 9.0241 40.9906C9.08724 41.0518 9.22377 41.1407 9.46372 41.2271C9.94423 41.4001 10.57 41.468 11 41.468C11.9361 41.468 12.3594 40.9956 12.5 40.7578V34.468C12.5 33.9157 12.9477 33.468 13.5 33.468H16.8413C18.072 33.0763 19.0756 32.9771 19.8633 33.0469C20.6475 33.1164 21.3113 33.3651 21.7071 33.7609C21.8104 33.8642 21.8899 33.9889 21.9398 34.1263C22.6475 36.0724 24.0623 37.5463 25.6041 38.6065C27.1495 39.6692 28.7574 40.2704 29.7249 40.4936C29.8019 40.5114 29.8765 40.5382 29.9472 40.5736C30.5302 40.8651 30.9277 40.8306 31.1705 40.753C31.4474 40.6645 31.6176 40.4889 31.6679 40.4133C31.7045 40.3585 31.7463 40.3075 31.7929 40.2609C32.066 39.9878 32.1086 39.6952 31.9918 39.3042C31.8854 38.9479 31.6578 38.5924 31.4399 38.3354L28.7184 37.4283C26.7875 36.9307 25.8159 35.5779 25.5513 34.7842C25.5348 34.7347 25.5222 34.6839 25.5136 34.6324C25.3464 33.6294 24.8051 32.5148 24.137 31.4887C23.4767 30.4746 22.7461 29.6283 22.2929 29.1751L18.2929 25.1751C17.9493 24.8315 17.9024 24.2906 18.1819 23.893C18.4613 23.4954 18.9861 23.3563 19.4258 23.5632L27.6504 27.4336C28.1605 27.3394 28.4647 27.187 28.6428 27.0486C28.8367 26.898 28.9308 26.727 28.975 26.5332C29.0599 26.1608 28.9603 25.6703 28.7712 25.2412L10.8085 17.4113C10.6119 18.1357 10.2711 18.8006 9.81932 19.3731Z" fill="#204EF4"/>
<path fill-rule="evenodd" clip-rule="evenodd" d="M18.5198 1.62047C18.7295 1.10952 19.3136 0.865253 19.8246 1.07489L37.4729 8.3156C37.9839 8.52524 38.2282 9.10939 38.0185 9.62034L32.8858 22.1307C32.6762 22.6417 32.092 22.8859 31.5811 22.6763L13.9327 15.4356C13.4218 15.226 13.1775 14.6418 13.3871 14.1309L18.5198 1.62047ZM19.9906 3.30478L18.9163 5.9232L34.7093 12.4171L35.7886 9.78635L19.9906 3.30478ZM33.9501 14.2674L18.1572 7.77352L15.617 13.9648L31.415 20.4464L33.9501 14.2674Z" fill="#204EF4"/>
</svg>
