<svg width="46" height="42" viewBox="0 0 46 42" fill="none" xmlns="http://www.w3.org/2000/svg">
<path fill-rule="evenodd" clip-rule="evenodd" d="M30.8325 2.05704C30.3117 1.87323 29.7405 2.14641 29.5567 2.66721L17.5567 36.6672C17.3729 37.188 17.6461 37.7592 18.1669 37.943C18.6877 38.1268 19.2589 37.8536 19.4427 37.3328L31.4427 3.33285C31.6265 2.81205 31.3533 2.24085 30.8325 2.05704Z" fill="#204EF4"/>
<path d="M37.8759 16.084L39.4996 11.6249C41.1415 12.0816 42.3971 12.9024 43.2942 13.8367L41.6605 18.2316C40.7633 17.2974 39.5178 16.5407 37.8759 16.084Z" fill="#204EF4"/>
<path d="M32.0238 19.3981L33.679 14.8673C34.7259 15.2773 36.45 15.7672 37.8759 16.084L36.2227 20.6242C34.8068 20.3071 33.0583 19.8033 32.0238 19.3981Z" fill="#204EF4"/>
<path d="M30.4996 12.9485L32.066 8.5C32.8897 9.26427 33.9494 9.88957 35.3037 10.4199L33.679 14.8673C32.3247 14.337 31.3232 13.7128 30.4996 12.9485Z" fill="#204EF4"/>
<path d="M27.4884 21.5L28.8969 17.5C29.7098 18.2544 30.696 18.8722 32.0238 19.3981L30.4996 23.5702C29.2642 23.0647 28.2888 22.3955 27.4884 21.5Z" fill="#204EF4"/>
<path d="M34.7513 24.665L36.2227 20.6242C37.8494 21.0767 39.087 21.8236 39.9823 22.746L38.4009 27C37.5108 25.9788 36.3114 25.0933 34.7513 24.665Z" fill="#204EF4"/>
<path d="M43.4995 22.5L41.9995 27C42.1929 25.9364 41.3451 24.165 39.9823 22.746L41.6605 18.2316C43.0232 19.6506 43.6929 21.4364 43.4995 22.5Z" fill="#204EF4"/>
<path d="M30.4996 12.9485L28.8969 17.5C27.9115 16.5856 27.2396 15.4137 26.8303 14.0261L28.4451 9.49054C28.8537 10.898 29.5041 12.0248 30.4996 12.9485Z" fill="#204EF4"/>
<path fill-rule="evenodd" clip-rule="evenodd" d="M30.0453 3.33984L27.9743 9.32294L27.9728 9.32709L26.3563 13.8674L24.9694 18.0096L25.0317 18.1757C25.5874 19.6577 26.2481 20.8625 27.1158 21.8333C27.9725 22.7918 29.0133 23.5023 30.3105 24.0331C31.3404 24.4545 33.2683 24.923 34.6434 25.154C36.0806 25.5543 37.1913 26.373 38.0242 27.3286C39.3214 28.8169 39.9164 30.6049 40.0019 31.5454L40.9742 31.6582L45.4853 18.1245L45.4916 18.0895C45.7228 16.8178 45.0882 14.9827 43.6551 13.4904C42.7179 12.5146 41.4217 11.6625 39.7467 11.1754C39.7438 11.1742 39.7413 11.1732 39.7392 11.1723C39.7329 11.1697 39.7274 11.1676 39.7234 11.1661C39.7156 11.1632 39.7091 11.161 39.7052 11.1597L39.6943 11.1562L39.6805 11.1521L39.6608 11.1467C39.6491 11.1435 39.6359 11.1402 39.6237 11.1371C39.6115 11.1341 39.5984 11.1309 39.5865 11.1281L39.5668 11.1237L39.5535 11.121L39.5436 11.1191L39.5279 11.1166L39.5152 11.1149C39.5122 11.1145 39.5085 11.1141 39.5042 11.1137C38.1114 10.7996 36.4742 10.3413 35.4863 9.95446C34.1728 9.44009 33.1721 8.8441 32.4064 8.1336C31.4779 7.272 30.8672 6.21607 30.4804 4.86273L30.0453 3.33984ZM39.8073 12.2419C41.0195 12.6478 41.982 13.2663 42.7138 13.9639L41.4536 17.3538C40.6685 16.6923 39.6964 16.1469 38.5265 15.7595L39.8073 12.2419ZM38.1842 16.6996C39.4018 17.0987 40.3549 17.6759 41.0797 18.3597L39.7741 21.8719C38.9935 21.2203 38.0301 20.6828 36.8733 20.2997L38.1842 16.6996ZM36.531 21.2398C37.7343 21.6343 38.6793 22.2026 39.4009 22.8758L38.2104 26.0782C37.4535 25.3585 36.5231 24.7387 35.4005 24.3443L36.531 21.2398ZM34.4253 24.0997L35.5599 20.9838C34.4504 20.7163 33.2392 20.3663 32.3212 20.0417L31.1402 23.2744C32.0298 23.5769 33.3359 23.8969 34.4253 24.0997ZM30.2132 22.8978C29.3614 22.4939 28.659 21.9971 28.0607 21.3809L29.127 18.3526C29.7685 18.8544 30.5064 19.2903 31.3902 19.6761L30.2132 22.8978ZM31.734 18.7349C30.8177 18.3295 30.0933 17.8736 29.4801 17.3499L30.7297 13.8011C31.3837 14.3127 32.138 14.7559 33.0447 15.1471L31.734 18.7349ZM33.3885 14.2062C32.4475 13.795 31.7074 13.3319 31.0828 12.7984L32.2975 9.34878C32.9689 9.86478 33.7553 10.3094 34.6692 10.7004L33.3885 14.2062ZM35.6016 11.0626L34.3198 14.5712C35.2231 14.8885 36.4453 15.2352 37.5575 15.498L38.8365 11.9853C37.7302 11.7219 36.5205 11.384 35.6016 11.0626ZM37.213 16.444C36.105 16.1783 34.8949 15.8337 33.9766 15.5105L32.6645 19.1021C33.5649 19.4189 34.7977 19.773 35.9046 20.0374L37.213 16.444ZM31.4883 8.63608L30.2984 12.0153C29.7037 11.3109 29.274 10.4872 28.9705 9.50187L30.0136 6.48849C30.3842 7.29524 30.8669 8.00686 31.4883 8.63608ZM28.455 10.9541C28.8246 11.7539 29.3049 12.4599 29.9219 13.0846L28.6965 16.5644C28.1033 15.8555 27.6619 15.0111 27.3569 14.0385L28.455 10.9541ZM26.859 15.5156L26.0307 17.9893C26.4097 18.9703 26.8294 19.7903 27.3173 20.4812L28.3193 17.6357C27.7135 17.0195 27.2314 16.3081 26.859 15.5156ZM38.9714 26.901L40.1594 23.7053C40.5598 24.2061 40.8882 24.7269 41.1232 25.2211C41.4549 25.9187 41.5704 26.4989 41.5131 26.879L40.57 29.7084C40.2401 28.8148 39.7169 27.8153 38.9714 26.901ZM42.1315 25.0238C42.0981 24.9462 42.0629 24.8687 42.0263 24.7917C41.6823 24.0682 41.1759 23.3163 40.5586 22.6313L41.8339 19.2009C42.2085 19.6916 42.5 20.2033 42.7019 20.6906C42.9883 21.3819 43.076 21.9777 43.0132 22.3784L42.1315 25.0238ZM43.6683 20.4132C43.6544 20.378 43.6402 20.3429 43.6257 20.3078C43.3223 19.5756 42.8535 18.8123 42.2364 18.1181L43.4666 14.8087C44.3327 15.9616 44.6307 17.1498 44.5133 17.878L43.6683 20.4132Z" fill="#204EF4"/>
<path d="M29 2C29 3.10457 29.8954 4 31 4C32.1046 4 33 3.10457 33 2C33 0.895431 32.1046 0 31 0C29.8954 0 29 0.895431 29 2Z" fill="#204EF4"/>
<path fill-rule="evenodd" clip-rule="evenodd" d="M18 38C18.5523 38 19 38.4477 19 39C19 39.5523 18.5523 40 18 40C17.4477 40 17 39.5523 17 39C17 38.4477 17.4477 38 18 38ZM21 39C21 37.3431 19.6569 36 18 36C16.3431 36 15 37.3431 15 39C15 40.6569 16.3431 42 18 42C19.6569 42 21 40.6569 21 39Z" fill="#204EF4"/>
<path fill-rule="evenodd" clip-rule="evenodd" d="M15.1675 2.05704C15.6883 1.87323 16.2595 2.14641 16.4433 2.66721L28.4433 36.6672C28.6271 37.188 28.3539 37.7592 27.8331 37.943C27.3123 38.1268 26.7411 37.8536 26.5573 37.3328L14.5573 3.33285C14.3735 2.81205 14.6467 2.24085 15.1675 2.05704Z" fill="#204EF4"/>
<path d="M8.12409 16.084L6.50041 11.6249C4.85852 12.0816 3.60293 12.9024 2.70576 13.8367L4.33953 18.2316C5.2367 17.2974 6.4822 16.5407 8.12409 16.084Z" fill="#204EF4"/>
<path d="M13.9762 19.3981L12.321 14.8673C11.2741 15.2773 9.54999 15.7672 8.12409 16.084L9.7773 20.6242C11.1932 20.3071 12.9417 19.8033 13.9762 19.3981Z" fill="#204EF4"/>
<path d="M15.5004 12.9485L13.934 8.5C13.1103 9.26427 12.0506 9.88957 10.6963 10.4199L12.321 14.8673C13.6753 14.337 14.6768 13.7128 15.5004 12.9485Z" fill="#204EF4"/>
<path d="M18.5116 21.5L17.1031 17.5C16.2902 18.2544 15.304 18.8722 13.9762 19.3981L15.5004 23.5702C16.7358 23.0647 17.7112 22.3955 18.5116 21.5Z" fill="#204EF4"/>
<path d="M11.2487 24.665L9.7773 20.6242C8.15058 21.0767 6.91296 21.8236 6.01769 22.746L7.59909 27C8.48923 25.9788 9.68863 25.0933 11.2487 24.665Z" fill="#204EF4"/>
<path d="M2.50052 22.5L4.00047 27C3.80708 25.9364 4.65494 24.165 6.01769 22.746L4.33953 18.2316C2.97678 19.6506 2.30713 21.4364 2.50052 22.5Z" fill="#204EF4"/>
<path d="M15.5004 12.9485L17.1031 17.5C18.0885 16.5856 18.7604 15.4137 19.1697 14.0261L17.5549 9.49054C17.1463 10.898 16.4959 12.0248 15.5004 12.9485Z" fill="#204EF4"/>
<path fill-rule="evenodd" clip-rule="evenodd" d="M15.9547 3.33984L18.0257 9.32294L18.0272 9.32709L19.6437 13.8674L21.0306 18.0096L20.9683 18.1757C20.4126 19.6577 19.7519 20.8625 18.8842 21.8333C18.0275 22.7918 16.9867 23.5023 15.6895 24.0331C14.6596 24.4545 12.7317 24.923 11.3566 25.154C9.91945 25.5543 8.80868 26.373 7.97576 27.3286C6.67856 28.8169 6.08362 30.6049 5.99812 31.5454L5.02583 31.6582L0.514744 18.1245L0.508388 18.0895C0.277161 16.8178 0.911787 14.9827 2.34488 13.4904C3.28206 12.5146 4.57834 11.6625 6.25334 11.1754C6.25618 11.1742 6.25867 11.1732 6.26076 11.1723C6.26712 11.1697 6.27255 11.1676 6.27656 11.1661C6.28438 11.1632 6.29085 11.161 6.29484 11.1597L6.30566 11.1562L6.31952 11.1521L6.33921 11.1467C6.35093 11.1435 6.36405 11.1402 6.37625 11.1371C6.38847 11.1341 6.40165 11.1309 6.41353 11.1281L6.43322 11.1237L6.44654 11.121L6.45642 11.1191L6.47214 11.1166L6.48485 11.1149C6.4878 11.1145 6.49148 11.1141 6.49576 11.1137C7.88859 10.7996 9.52584 10.3413 10.5137 9.95446C11.8272 9.44009 12.8279 8.8441 13.5936 8.1336C14.5221 7.272 15.1328 6.21607 15.5196 4.86273L15.9547 3.33984ZM6.19267 12.2419C4.9805 12.6478 4.01804 13.2663 3.2862 13.9639L4.54637 17.3538C5.33154 16.6923 6.30359 16.1469 7.47351 15.7595L6.19267 12.2419ZM7.81582 16.6996C6.59823 17.0987 5.64507 17.6759 4.92028 18.3597L6.22593 21.8719C7.0065 21.2203 7.9699 20.6828 9.12673 20.2997L7.81582 16.6996ZM9.46904 21.2398C8.26568 21.6343 7.32066 22.2026 6.59912 22.8758L7.78958 26.0782C8.54649 25.3585 9.47686 24.7387 10.5995 24.3443L9.46904 21.2398ZM11.5747 24.0997L10.4401 20.9838C11.5496 20.7163 12.7608 20.3663 13.6788 20.0417L14.8598 23.2744C13.9702 23.5769 12.6641 23.8969 11.5747 24.0997ZM15.7868 22.8978C16.6386 22.4939 17.341 21.9971 17.9393 21.3809L16.873 18.3526C16.2315 18.8544 15.4936 19.2903 14.6098 19.6761L15.7868 22.8978ZM14.266 18.7349C15.1823 18.3295 15.9067 17.8736 16.5199 17.3499L15.2703 13.8011C14.6163 14.3127 13.862 14.7559 12.9553 15.1471L14.266 18.7349ZM12.6115 14.2062C13.5525 13.795 14.2926 13.3319 14.9172 12.7984L13.7025 9.34878C13.0311 9.86478 12.2447 10.3094 11.3308 10.7004L12.6115 14.2062ZM10.3984 11.0626L11.6802 14.5712C10.7769 14.8885 9.55469 15.2352 8.44255 15.498L7.16348 11.9853C8.26977 11.7219 9.47954 11.384 10.3984 11.0626ZM8.78699 16.444C9.89499 16.1783 11.1051 15.8337 12.0234 15.5105L13.3355 19.1021C12.4351 19.4189 11.2023 19.773 10.0954 20.0374L8.78699 16.444ZM14.5117 8.63608L15.7016 12.0153C16.2963 11.3109 16.726 10.4872 17.0295 9.50187L15.9864 6.48849C15.6158 7.29524 15.1331 8.00686 14.5117 8.63608ZM17.545 10.9541C17.1754 11.7539 16.6951 12.4599 16.0781 13.0846L17.3035 16.5644C17.8967 15.8555 18.3381 15.0111 18.6431 14.0385L17.545 10.9541ZM19.141 15.5156L19.9693 17.9893C19.5903 18.9703 19.1706 19.7903 18.6827 20.4812L17.6807 17.6357C18.2865 17.0195 18.7686 16.3081 19.141 15.5156ZM7.02856 26.901L5.84062 23.7053C5.44017 24.2061 5.11183 24.7269 4.87683 25.2211C4.5451 25.9187 4.42956 26.4989 4.48689 26.879L5.43001 29.7084C5.75988 28.8148 6.28305 27.8153 7.02856 26.901ZM3.86852 25.0238C3.90194 24.9462 3.93707 24.8687 3.97373 24.7917C4.31771 24.0682 4.82408 23.3163 5.44137 22.6313L4.16614 19.2009C3.7915 19.6916 3.50005 20.2033 3.29814 20.6906C3.01166 21.3819 2.92399 21.9777 2.98675 22.3784L3.86852 25.0238ZM2.3317 20.4132C2.34555 20.378 2.35976 20.3429 2.37431 20.3078C2.6777 19.5756 3.14654 18.8123 3.76362 18.1181L2.53338 14.8087C1.66726 15.9616 1.36932 17.1498 1.48665 17.878L2.3317 20.4132Z" fill="#204EF4"/>
<path d="M17 2C17 3.10457 16.1046 4 15 4C13.8954 4 13 3.10457 13 2C13 0.895431 13.8954 0 15 0C16.1046 0 17 0.895431 17 2Z" fill="#204EF4"/>
<path fill-rule="evenodd" clip-rule="evenodd" d="M28 38C27.4477 38 27 38.4477 27 39C27 39.5523 27.4477 40 28 40C28.5523 40 29 39.5523 29 39C29 38.4477 28.5523 38 28 38ZM25 39C25 37.3431 26.3431 36 28 36C29.6569 36 31 37.3431 31 39C31 40.6569 29.6569 42 28 42C26.3431 42 25 40.6569 25 39Z" fill="#204EF4"/>
</svg>
