<svg width="43" height="42" viewBox="0 0 43 42" fill="none" xmlns="http://www.w3.org/2000/svg">
<path fill-rule="evenodd" clip-rule="evenodd" d="M20.7929 0.292893C21.1834 -0.0976311 21.8166 -0.0976311 22.2071 0.292893L30 8.08579V5.5C30 4.94772 30.4477 4.5 31 4.5H36C36.5523 4.5 37 4.94772 37 5.5V15.0858L42.7071 20.7929C43.0976 21.1834 43.0976 21.8166 42.7071 22.2071L39.7071 25.2071C39.3166 25.5976 38.6834 25.5976 38.2929 25.2071L37 23.9142V41C37 41.5523 36.5523 42 36 42H21C20.4477 42 20 41.5523 20 41V24H12.5V41C12.5 41.5523 12.0523 42 11.5 42H7C6.44772 42 6 41.5523 6 41V23.9142L4.70711 25.2071C4.31658 25.5976 3.68342 25.5976 3.29289 25.2071L0.292893 22.2071C-0.0976311 21.8166 -0.0976311 21.1834 0.292893 20.7929L20.7929 0.292893ZM8 21.9142V40H10.5V23C10.5 22.4477 10.9477 22 11.5 22H21C21.5523 22 22 22.4477 22 23V40H35V21.9142L21.5 8.41421L8 21.9142ZM35 13.0858V6.5H32V10.0858L35 13.0858ZM2.41421 21.5L4 23.0858L20.7929 6.29289C21.1834 5.90237 21.8166 5.90237 22.2071 6.29289L39 23.0858L40.5858 21.5L21.5 2.41421L2.41421 21.5ZM23.5 23C23.5 22.4477 23.9477 22 24.5 22H32C32.5523 22 33 22.4477 33 23V32C33 32.5523 32.5523 33 32 33H24.5C23.9477 33 23.5 32.5523 23.5 32V23ZM25.5 24V31H31V24H25.5Z" fill="#204EF4"/>
</svg>
