<svg width="40" height="43" viewBox="0 0 40 43" fill="none" xmlns="http://www.w3.org/2000/svg">
<path fill-rule="evenodd" clip-rule="evenodd" d="M0.606081 4.08085C6.30832 1.63704 12.5422 0 20 0C27.9827 0 34.8123 2.44246 38.4334 3.73745C38.7588 3.85381 39.0583 3.96091 39.3304 4.05614C39.7314 4.19653 40 4.57506 40 5V22C40 24.4321 39.0862 26.892 38.0091 28.9298C36.9276 30.976 35.6303 32.6925 34.7437 33.6685C33.0343 35.5898 30.2133 37.5282 27.4997 39.1464C24.7594 40.7804 22.0291 42.1454 20.4283 42.9037C20.1886 43.0173 19.9136 43.0309 19.6638 42.9417C16.7667 41.907 13.6937 40.239 11.0983 38.5214C8.53692 36.8265 6.34256 35.0185 5.23766 33.6478C3.34354 31.5363 2.04258 29.0529 1.21412 26.8523C0.389917 24.663 0 22.663 0 21.5V5C0 4.59997 0.238397 4.23843 0.606081 4.08085ZM2 5.66345V21.5C2 22.337 2.31008 24.087 3.08588 26.1477C3.85464 28.1897 5.04774 30.4471 6.74329 32.331C6.75625 32.3454 6.76877 32.3602 6.78087 32.3753C7.68209 33.5018 9.67762 35.1831 12.202 36.8536C14.5875 38.4322 17.3561 39.9422 19.9492 40.9163C21.5451 40.1494 24.011 38.8982 26.4754 37.4286C29.1681 35.8229 31.7616 34.013 33.2526 32.3356L33.26 32.3273L33.2601 32.3273C34.0401 31.4693 35.2406 29.8878 36.2409 27.9952C37.2472 26.0913 38 23.9679 38 22V5.70668C37.9241 5.67962 37.8469 5.65203 37.7683 5.62396C34.1445 4.33008 27.6186 2 20 2C13.1192 2 7.33033 3.45055 2 5.66345ZM4.5941 8.08608C10.177 5.60652 17.2668 5 20.0002 5C20.5524 5 21.0002 5.44772 21.0002 6V33C21.0002 33.5523 20.5524 34 20.0002 34C19.4479 34 19.0002 33.5523 19.0002 33V7.02305C16.0639 7.14604 10.5463 7.79096 6 9.66006V21.9799C6.03856 22.8735 6.4772 24.5923 7.48202 26.5419C8.48039 28.4789 9.99522 30.5592 12.1013 32.2008C13.0019 32.8552 14.4987 33.8852 16.0623 34.8486C17.4776 35.7207 18.8823 36.497 19.9353 36.912C21.7582 35.9796 25.3751 34.0032 27.9188 32.1863C28.9755 31.4314 30.519 29.9658 31.7913 28.1154C33.0676 26.259 34 24.1193 34 22V9.69076C32.002 8.98191 27.7428 7.81148 23.918 7.49663C23.3675 7.45132 22.9581 6.96838 23.0034 6.41796C23.0487 5.86754 23.5316 5.45806 24.082 5.50337C28.5945 5.87482 33.6277 7.35753 35.3789 8.07457C35.7546 8.22839 36 8.59406 36 9V22C36 24.6807 34.8361 27.2169 33.4393 29.2485C32.0384 31.2861 30.3319 32.9204 29.0812 33.8137C26.2178 35.8591 22.1299 38.0531 20.4474 38.8944C20.2102 39.013 19.9355 39.0326 19.6839 38.9487C18.3639 38.5086 16.611 37.5359 15.0131 36.5514C13.3926 35.5528 11.8462 34.4883 10.9119 33.8088C10.9031 33.8024 10.8946 33.796 10.8861 33.7894C8.49874 31.9325 6.80848 29.6006 5.70426 27.4581C4.61113 25.3372 4.04891 23.3158 4.00071 22.0377C4.00024 22.0251 4 22.0126 4 22V9C4 8.60472 4.23284 8.24653 4.5941 8.08608Z" fill="#204EF4"/>
</svg>
