<svg width="42" height="42" viewBox="0 0 42 42" fill="none" xmlns="http://www.w3.org/2000/svg">
<path d="M23.2072 17.7955C23.803 17.7955 24.2875 18.2013 24.2875 18.7C24.2875 19.153 24.6549 19.5204 25.1079 19.5204C25.5609 19.5204 25.9282 19.153 25.9282 18.7C25.9282 17.564 25.1282 16.5995 24.0276 16.2732V16.1592C24.0276 15.7062 23.6602 15.3389 23.2072 15.3389C22.7542 15.3389 22.3869 15.7062 22.3869 16.1592V16.2732C21.2862 16.5996 20.4863 17.564 20.4863 18.7C20.4863 20.1035 21.7069 21.2452 23.2072 21.2452C23.803 21.2452 24.2875 21.6511 24.2875 22.1498C24.2875 22.6486 23.803 23.0543 23.2072 23.0543C22.6116 23.0543 22.127 22.6486 22.127 22.1498C22.127 21.6968 21.7597 21.3295 21.3067 21.3295C20.8537 21.3295 20.4863 21.6968 20.4863 22.1498C20.4863 23.2859 21.2862 24.2503 22.3869 24.5766V24.6906C22.3869 25.1436 22.7542 25.5109 23.2072 25.5109C23.6602 25.5109 24.0276 25.1436 24.0276 24.6906V24.5766C25.1282 24.2503 25.9282 23.2859 25.9282 22.1498C25.9282 20.7464 24.7075 19.6046 23.2072 19.6046C22.6116 19.6046 22.127 19.1988 22.127 18.7C22.127 18.2013 22.6116 17.7955 23.2072 17.7955Z" fill="#204EF4"/>
<path d="M41.8765 27.4033C41.5549 26.2879 40.6497 25.4452 39.5144 25.2037C38.7873 25.0489 38.0311 25.1619 37.3853 25.5051C37.7593 23.1798 37.5629 20.7745 36.7935 18.5324C36.6464 18.1039 36.1797 17.8761 35.7512 18.0228C35.3227 18.1698 35.0945 18.6365 35.2416 19.065C36.1503 21.7128 36.1577 24.6175 35.2674 27.2685L28.73 33.0746C28.3267 33.4328 27.8843 33.7365 27.4142 33.983C27.5471 33.4453 27.5381 32.8759 27.3784 32.335C27.1263 31.4807 26.521 30.7701 25.7177 30.3854L19.9265 27.6115C17.3946 26.3988 14.4312 26.2586 11.7961 27.226L11.2074 27.4421C9.57345 22.8263 10.7108 17.7073 14.2098 14.2083L20.0013 8.41699H26.4128L31.3198 13.324C31.6403 13.6443 32.1595 13.6443 32.48 13.324C32.8004 13.0037 32.8004 12.4842 32.48 12.1638L27.7915 7.47549L29.4864 2.59791C29.7136 1.94402 29.4627 1.23065 28.8761 0.862975C28.2897 0.495381 27.5382 0.580614 27.0487 1.06986L27.0386 1.07995C26.6995 1.41917 26.1476 1.41917 25.8085 1.07995C24.3688 -0.359659 22.0263 -0.359659 20.5865 1.07995C20.4223 1.24427 20.2038 1.33467 19.9715 1.33467C19.7392 1.33467 19.5207 1.24419 19.3565 1.07995C18.8665 0.589966 18.1145 0.505143 17.5276 0.873886C16.9408 1.24255 16.6909 1.9569 16.9198 2.61104L18.6221 7.47598L13.0497 13.0483C10.9875 15.1106 9.6166 17.7108 9.08551 20.5676C8.61964 23.0729 8.82144 25.6276 9.66598 28.0083L8.37272 28.4831C7.94237 27.9236 7.26682 27.562 6.50808 27.562H2.35167C1.05496 27.5621 0 28.617 0 29.9137V39.6483C0 40.945 1.05496 42 2.35167 42H23.9729C27.3689 42 30.5805 40.6965 33.0158 38.3295L41.0485 30.5228C41.8809 29.7139 42.1981 28.5186 41.8765 27.4033ZM19.9714 2.97543C20.642 2.97543 21.2724 2.71432 21.7466 2.24016C22.5466 1.44017 23.8483 1.44017 24.6483 2.24016C25.1225 2.71432 25.753 2.97543 26.4236 2.97543C26.8997 2.97543 27.3555 2.84385 27.7496 2.59775L26.2976 6.77639H20.1156L18.6555 2.60398C19.0473 2.84598 19.4993 2.97543 19.9714 2.97543ZM1.64068 39.6484V29.9137C1.64068 29.5216 1.95963 29.2027 2.35167 29.2027H6.508C6.90004 29.2027 7.21899 29.5216 7.21899 29.9137V39.6483C7.21899 40.0404 6.90004 40.3593 6.508 40.3593H2.35167C1.95963 40.3594 1.64068 40.0404 1.64068 39.6484ZM39.905 29.3463L31.8723 37.1531C29.7449 39.2207 26.9395 40.3594 23.9729 40.3594H8.7495C8.82087 40.1349 8.85967 39.8961 8.85967 39.6484V30.0521L12.3615 28.7663C14.5836 27.9505 17.0828 28.0688 19.2178 29.0914L25.009 31.8653C25.3996 32.0523 25.6822 32.3841 25.8048 32.7995C25.9273 33.215 25.8702 33.6472 25.6437 34.0164C25.2798 34.6094 24.5624 34.8762 23.8994 34.6656L16.2057 32.219C15.7741 32.0818 15.3127 32.3204 15.1753 32.7522C15.0381 33.184 15.2767 33.6453 15.7085 33.7826L23.4022 36.2291C23.7191 36.3299 24.0417 36.3783 24.3602 36.3783C24.3986 36.3783 24.4369 36.376 24.4751 36.3746C26.4481 36.3462 28.3418 35.6138 29.8194 34.3015L37.8675 27.1536C38.2216 26.8391 38.7098 26.7102 39.1729 26.8086C39.7227 26.9256 40.1441 27.3179 40.2998 27.8581C40.4559 28.3981 40.3082 28.9544 39.905 29.3463Z" fill="#204EF4"/>
<path d="M34.3506 16.324C34.5663 16.324 34.778 16.237 34.9305 16.0836C35.083 15.931 35.1709 15.7201 35.1709 15.5037C35.1709 15.2879 35.0831 15.0771 34.9305 14.9237C34.778 14.7712 34.5663 14.6833 34.3506 14.6833C34.1348 14.6833 33.924 14.7711 33.7706 14.9237C33.618 15.0771 33.5303 15.2879 33.5303 15.5037C33.5303 15.7202 33.618 15.931 33.7706 16.0836C33.9231 16.2371 34.1348 16.324 34.3506 16.324Z" fill="#204EF4"/>
</svg>
