<svg width="45" height="35" viewBox="0 0 45 35" fill="none" xmlns="http://www.w3.org/2000/svg">
<path fill-rule="evenodd" clip-rule="evenodd" d="M22.0445 0.109752C22.3305 -0.0365839 22.6695 -0.0365839 22.9555 0.109752L44.4555 11.1098C44.7839 11.2778 44.9932 11.613 44.9998 11.9819C45.0065 12.3508 44.8095 12.6934 44.4874 12.8732L37 17.0522V27C37 27.1673 36.958 27.332 36.8779 27.4789C35.2065 30.5431 32.1418 32.2832 29.3271 33.2575C26.5007 34.2359 23.7635 34.5 22.5 34.5C13.6961 34.5 9.23691 29.5914 8.08086 26.8939C8.02751 26.7694 8 26.6354 8 26.5V17.0522L4 14.8196V26.5C4 27.0523 3.55229 27.5 3 27.5C2.44772 27.5 2 27.0523 2 26.5V13.7034L0.512634 12.8732C0.190475 12.6934 -0.00650666 12.3508 0.000164231 11.9819C0.00683512 11.613 0.216075 11.2778 0.544525 11.1098L22.0445 0.109752ZM6.18495 13.7487L22.5 22.8548L41.8794 12.0383L22.5 2.12328L3.12055 12.0383L3.20472 12.0853L20.8832 10.0068C21.4317 9.94235 21.9287 10.3347 21.9932 10.8832C22.0576 11.4317 21.6653 11.9287 21.1168 11.9932L6.18495 13.7487ZM10 18.1685V26.2836C10.9839 28.3285 14.736 32.5 22.5 32.5C23.5698 32.5 26.0826 32.2641 28.6729 31.3675C31.1972 30.4937 33.6431 29.0465 35 26.7368V18.1685L22.9874 24.8732C22.6845 25.0423 22.3155 25.0423 22.0126 24.8732L10 18.1685Z" fill="#204EF4"/>
<path fill-rule="evenodd" clip-rule="evenodd" d="M22.5 10C22.2239 10 22 10.2239 22 10.5C22 10.7761 22.2239 11 22.5 11C22.7761 11 23 10.7761 23 10.5C23 10.2239 22.7761 10 22.5 10ZM20 10.5C20 9.11929 21.1193 8 22.5 8C23.8807 8 25 9.11929 25 10.5C25 11.8807 23.8807 13 22.5 13C21.1193 13 20 11.8807 20 10.5Z" fill="#204EF4"/>
<path fill-rule="evenodd" clip-rule="evenodd" d="M3 27C2.44772 27 2 27.4477 2 28C2 28.5523 2.44772 29 3 29C3.55228 29 4 28.5523 4 28C4 27.4477 3.55228 27 3 27ZM0 28C0 26.3431 1.34315 25 3 25C4.65685 25 6 26.3431 6 28C6 29.6569 4.65685 31 3 31C1.34315 31 0 29.6569 0 28Z" fill="#204EF4"/>
</svg>
