<svg width="185" height="163" viewBox="0 0 185 163" fill="none" xmlns="http://www.w3.org/2000/svg">
<rect x="0.759766" y="0.128845" width="183.771" height="162.316" rx="11.1942" fill="white"/>
<path d="M54.2661 113.431C54.2661 113.755 54.1897 114.06 54.0369 114.347C53.8841 114.635 53.6396 114.87 53.3035 115.053C52.9674 115.231 52.5365 115.319 52.0109 115.319H50.8557V117.904H49.8106V111.533H52.0109C52.4998 111.533 52.9123 111.618 53.2485 111.79C53.5908 111.955 53.8444 112.181 54.0094 112.468C54.1805 112.755 54.2661 113.076 54.2661 113.431ZM52.0109 114.467C52.4081 114.467 52.7045 114.378 52.9001 114.201C53.0957 114.017 53.1935 113.761 53.1935 113.431C53.1935 112.734 52.7993 112.386 52.0109 112.386H50.8557V114.467H52.0109ZM57.7748 112.376V114.247H59.975V115.099H57.7748V117.052H60.2501V117.904H56.7297V111.524H60.2501V112.376H57.7748ZM66.3137 117.904L64.8469 115.356H64.0493V117.904H63.0042V111.533H65.2044C65.6933 111.533 66.1059 111.618 66.442 111.79C66.7843 111.961 67.0379 112.19 67.203 112.477C67.3741 112.764 67.4597 113.085 67.4597 113.44C67.4597 113.855 67.3374 114.234 67.0929 114.577C66.8546 114.913 66.4848 115.142 65.9837 115.264L67.5605 117.904H66.3137ZM64.0493 114.522H65.2044C65.5956 114.522 65.8889 114.424 66.0845 114.228C66.2862 114.033 66.387 113.77 66.387 113.44C66.387 113.11 66.2892 112.853 66.0937 112.67C65.8981 112.48 65.6017 112.386 65.2044 112.386H64.0493V114.522ZM72.3628 117.969C71.935 117.969 71.55 117.895 71.2077 117.749C70.8655 117.596 70.5965 117.382 70.401 117.107C70.2054 116.832 70.1076 116.511 70.1076 116.144H71.2261C71.2505 116.419 71.3575 116.645 71.5469 116.823C71.7425 117 72.0145 117.089 72.3628 117.089C72.7234 117.089 73.0046 117.003 73.2063 116.832C73.408 116.655 73.5088 116.428 73.5088 116.153C73.5088 115.94 73.4446 115.765 73.3163 115.631C73.194 115.496 73.0382 115.393 72.8487 115.319C72.6654 115.246 72.4087 115.166 72.0786 115.081C71.663 114.971 71.3238 114.861 71.061 114.751C70.8043 114.635 70.5843 114.457 70.401 114.219C70.2176 113.981 70.1259 113.663 70.1259 113.266C70.1259 112.899 70.2176 112.578 70.401 112.303C70.5843 112.028 70.841 111.817 71.171 111.67C71.5011 111.524 71.8831 111.45 72.317 111.45C72.9343 111.45 73.4385 111.606 73.8297 111.918C74.2269 112.224 74.447 112.645 74.4897 113.183H73.3346C73.3163 112.951 73.2063 112.752 73.0046 112.587C72.8029 112.422 72.537 112.34 72.207 112.34C71.9075 112.34 71.663 112.416 71.4736 112.569C71.2841 112.722 71.1894 112.942 71.1894 113.229C71.1894 113.425 71.2474 113.586 71.3636 113.715C71.4858 113.837 71.6386 113.935 71.822 114.008C72.0053 114.082 72.2559 114.161 72.5737 114.247C72.9954 114.363 73.3377 114.479 73.6005 114.595C73.8694 114.711 74.0955 114.891 74.2789 115.136C74.4683 115.374 74.5631 115.695 74.5631 116.098C74.5631 116.422 74.4745 116.728 74.2972 117.015C74.1261 117.302 73.8725 117.535 73.5363 117.712C73.2063 117.883 72.8151 117.969 72.3628 117.969ZM80.1692 117.969C79.5764 117.969 79.0294 117.831 78.5282 117.556C78.0332 117.275 77.639 116.887 77.3456 116.392C77.0584 115.891 76.9147 115.328 76.9147 114.705C76.9147 114.082 77.0584 113.522 77.3456 113.027C77.639 112.532 78.0332 112.147 78.5282 111.872C79.0294 111.591 79.5764 111.45 80.1692 111.45C80.7682 111.45 81.3152 111.591 81.8103 111.872C82.3114 112.147 82.7056 112.532 82.9929 113.027C83.2801 113.522 83.4238 114.082 83.4238 114.705C83.4238 115.328 83.2801 115.891 82.9929 116.392C82.7056 116.887 82.3114 117.275 81.8103 117.556C81.3152 117.831 80.7682 117.969 80.1692 117.969ZM80.1692 117.061C80.591 117.061 80.9668 116.966 81.2969 116.777C81.6269 116.581 81.8836 116.306 82.067 115.952C82.2564 115.591 82.3512 115.176 82.3512 114.705C82.3512 114.234 82.2564 113.822 82.067 113.467C81.8836 113.113 81.6269 112.841 81.2969 112.651C80.9668 112.462 80.591 112.367 80.1692 112.367C79.7475 112.367 79.3717 112.462 79.0416 112.651C78.7116 112.841 78.4518 113.113 78.2624 113.467C78.079 113.822 77.9873 114.234 77.9873 114.705C77.9873 115.176 78.079 115.591 78.2624 115.952C78.4518 116.306 78.7116 116.581 79.0416 116.777C79.3717 116.966 79.7475 117.061 80.1692 117.061ZM91.1537 117.904H90.1086L86.9641 113.146V117.904H85.919V111.524H86.9641L90.1086 116.273V111.524H91.1537V117.904ZM97.8343 116.603H95.1665L94.7081 117.904H93.6171L95.8999 111.524H97.11L99.3928 117.904H98.2926L97.8343 116.603ZM97.5409 115.75L96.5049 112.789L95.4598 115.75H97.5409ZM102.897 117.061H105.052V117.904H101.852V111.533H102.897V117.061ZM112.286 117.061H114.44V117.904H111.241V111.533H112.286V117.061ZM119.687 117.969C119.094 117.969 118.547 117.831 118.046 117.556C117.551 117.275 117.157 116.887 116.864 116.392C116.576 115.891 116.433 115.328 116.433 114.705C116.433 114.082 116.576 113.522 116.864 113.027C117.157 112.532 117.551 112.147 118.046 111.872C118.547 111.591 119.094 111.45 119.687 111.45C120.286 111.45 120.833 111.591 121.328 111.872C121.829 112.147 122.224 112.532 122.511 113.027C122.798 113.522 122.942 114.082 122.942 114.705C122.942 115.328 122.798 115.891 122.511 116.392C122.224 116.887 121.829 117.275 121.328 117.556C120.833 117.831 120.286 117.969 119.687 117.969ZM119.687 117.061C120.109 117.061 120.485 116.966 120.815 116.777C121.145 116.581 121.402 116.306 121.585 115.952C121.774 115.591 121.869 115.176 121.869 114.705C121.869 114.234 121.774 113.822 121.585 113.467C121.402 113.113 121.145 112.841 120.815 112.651C120.485 112.462 120.109 112.367 119.687 112.367C119.266 112.367 118.89 112.462 118.56 112.651C118.23 112.841 117.97 113.113 117.78 113.467C117.597 113.822 117.505 114.234 117.505 114.705C117.505 115.176 117.597 115.591 117.78 115.952C117.97 116.306 118.23 116.581 118.56 116.777C118.89 116.966 119.266 117.061 119.687 117.061ZM129.278 116.603H126.61L126.152 117.904H125.061L127.344 111.524H128.554L130.837 117.904H129.737L129.278 116.603ZM128.985 115.75L127.949 112.789L126.904 115.75H128.985ZM138.531 117.904H137.486L134.341 113.146V117.904H133.296V111.524H134.341L137.486 116.273V111.524H138.531V117.904Z" fill="#778191"/>
<rect x="75.5391" y="129.367" width="38.1677" height="18.0559" rx="9.02794" fill="#D5FFE0"/>
<path d="M82.7511 140.389C82.8163 140.748 82.963 141.025 83.1912 141.22C83.4275 141.408 83.7412 141.502 84.1324 141.502C84.6376 141.502 85.0043 141.294 85.2325 140.878C85.4607 140.454 85.5747 139.745 85.5747 138.751C85.3873 139.012 85.1225 139.216 84.7802 139.362C84.4461 139.509 84.0835 139.582 83.6923 139.582C83.1708 139.582 82.6981 139.476 82.2744 139.265C81.8588 139.045 81.5288 138.723 81.2843 138.299C81.0398 137.867 80.9176 137.346 80.9176 136.734C80.9176 135.83 81.1865 135.113 81.7243 134.583C82.2622 134.045 82.9956 133.776 83.9246 133.776C85.0817 133.776 85.8966 134.147 86.3693 134.889C86.8501 135.63 87.0905 136.747 87.0905 138.238C87.0905 139.297 86.9968 140.165 86.8093 140.841C86.63 141.518 86.3163 142.031 85.8681 142.382C85.4281 142.732 84.825 142.907 84.059 142.907C83.456 142.907 82.9426 142.793 82.5189 142.565C82.0951 142.329 81.7692 142.023 81.541 141.648C81.321 141.265 81.1946 140.846 81.162 140.389H82.7511ZM84.0468 138.189C84.4706 138.189 84.8047 138.059 85.0491 137.798C85.2936 137.537 85.4158 137.187 85.4158 136.747C85.4158 136.266 85.2855 135.895 85.0247 135.634C84.7721 135.365 84.4257 135.231 83.9857 135.231C83.5456 135.231 83.1952 135.369 82.9345 135.646C82.6818 135.915 82.5555 136.274 82.5555 136.722C82.5555 137.154 82.6778 137.508 82.9222 137.786C83.1749 138.054 83.5497 138.189 84.0468 138.189ZM89.1315 142.981C88.8218 142.981 88.5652 142.887 88.3614 142.699C88.1659 142.504 88.0681 142.263 88.0681 141.978C88.0681 141.693 88.1659 141.457 88.3614 141.269C88.5652 141.074 88.8218 140.976 89.1315 140.976C89.433 140.976 89.6816 141.074 89.8771 141.269C90.0727 141.457 90.1705 141.693 90.1705 141.978C90.1705 142.263 90.0727 142.504 89.8771 142.699C89.6816 142.887 89.433 142.981 89.1315 142.981ZM91.1089 138.323C91.1089 136.914 91.3615 135.809 91.8667 135.011C92.3801 134.212 93.2276 133.813 94.4092 133.813C95.5908 133.813 96.4343 134.212 96.9395 135.011C97.4529 135.809 97.7096 136.914 97.7096 138.323C97.7096 139.741 97.4529 140.854 96.9395 141.66C96.4343 142.467 95.5908 142.871 94.4092 142.871C93.2276 142.871 92.3801 142.467 91.8667 141.66C91.3615 140.854 91.1089 139.741 91.1089 138.323ZM96.0227 138.323C96.0227 137.72 95.982 137.215 95.9005 136.808C95.8271 136.392 95.6723 136.054 95.436 135.793C95.2078 135.532 94.8656 135.402 94.4092 135.402C93.9529 135.402 93.6065 135.532 93.3702 135.793C93.142 136.054 92.9872 136.392 92.9057 136.808C92.8324 137.215 92.7957 137.72 92.7957 138.323C92.7957 138.943 92.8324 139.464 92.9057 139.888C92.9791 140.304 93.1339 140.642 93.3702 140.903C93.6065 141.155 93.9529 141.281 94.4092 141.281C94.8656 141.281 95.2119 141.155 95.4482 140.903C95.6845 140.642 95.8394 140.304 95.9127 139.888C95.9861 139.464 96.0227 138.943 96.0227 138.323ZM98.5711 136.172C98.5711 135.553 98.7504 135.068 99.109 134.717C99.4757 134.367 99.9443 134.192 100.515 134.192C101.085 134.192 101.55 134.367 101.908 134.717C102.275 135.068 102.458 135.553 102.458 136.172C102.458 136.8 102.275 137.288 101.908 137.639C101.55 137.989 101.085 138.164 100.515 138.164C99.9443 138.164 99.4757 137.989 99.109 137.639C98.7504 137.288 98.5711 136.8 98.5711 136.172ZM106.419 134.339L101.615 142.895H99.9524L104.744 134.339H106.419ZM100.502 135.219C100.054 135.219 99.8302 135.536 99.8302 136.172C99.8302 136.816 100.054 137.138 100.502 137.138C100.722 137.138 100.894 137.06 101.016 136.905C101.138 136.742 101.199 136.498 101.199 136.172C101.199 135.536 100.967 135.219 100.502 135.219ZM103.937 141.049C103.937 140.422 104.117 139.937 104.475 139.595C104.842 139.244 105.31 139.069 105.881 139.069C106.451 139.069 106.912 139.244 107.262 139.595C107.621 139.937 107.8 140.422 107.8 141.049C107.8 141.677 107.621 142.166 107.262 142.516C106.912 142.866 106.451 143.042 105.881 143.042C105.302 143.042 104.834 142.866 104.475 142.516C104.117 142.166 103.937 141.677 103.937 141.049ZM105.869 140.096C105.404 140.096 105.172 140.414 105.172 141.049C105.172 141.693 105.404 142.015 105.869 142.015C106.325 142.015 106.553 141.693 106.553 141.049C106.553 140.414 106.325 140.096 105.869 140.096Z" fill="#1CA440"/>
<path d="M65.8244 83.7656C65.8244 84.3259 65.6767 84.8454 65.3813 85.3241C65.0961 85.7927 64.6682 86.1798 64.0978 86.4854C63.5376 86.7808 62.8704 86.9437 62.0962 86.9743V88.2119H61.1183V86.959C60.0386 86.8673 59.1676 86.5465 58.5055 85.9964C57.8434 85.4362 57.492 84.6773 57.4512 83.7198H60.2321C60.2932 84.331 60.5886 84.7231 61.1183 84.8963V82.4822C60.3238 82.2784 59.6871 82.0798 59.2084 81.8863C58.7398 81.6927 58.3273 81.382 57.9707 80.9542C57.6142 80.5264 57.436 79.9407 57.436 79.1971C57.436 78.2701 57.7772 77.5265 58.4597 76.9663C59.1524 76.406 60.0386 76.0903 61.1183 76.019V74.7813H62.0962V76.019C63.1658 76.1004 64.0112 76.4111 64.6326 76.951C65.2539 77.4909 65.6003 78.2396 65.6716 79.1971H62.8754C62.8143 78.647 62.5546 78.2905 62.0962 78.1275V80.4958C62.9417 80.7301 63.5936 80.9389 64.052 81.1223C64.5103 81.3056 64.9178 81.6112 65.2743 82.039C65.641 82.4567 65.8244 83.0322 65.8244 83.7656ZM60.2015 79.0748C60.2015 79.3295 60.2779 79.5434 60.4307 79.7166C60.5937 79.8897 60.8229 80.0425 61.1183 80.175V78.0511C60.8331 78.102 60.609 78.2141 60.446 78.3873C60.283 78.5502 60.2015 78.7794 60.2015 79.0748ZM62.0962 84.9421C62.4018 84.8912 62.6412 84.769 62.8143 84.5754C62.9977 84.3819 63.0894 84.1425 63.0894 83.8573C63.0894 83.5925 63.0028 83.3785 62.8296 83.2156C62.6666 83.0424 62.4222 82.8947 62.0962 82.7725V84.9421ZM74.9035 78.0053H70.1363V80.1138C70.34 79.8897 70.6252 79.7064 70.9919 79.5638C71.3586 79.4212 71.7559 79.3499 72.1837 79.3499C72.9477 79.3499 73.5792 79.523 74.0784 79.8694C74.5877 80.2157 74.9595 80.6639 75.1938 81.214C75.4281 81.764 75.5452 82.3599 75.5452 83.0017C75.5452 84.1934 75.209 85.1408 74.5368 85.8436C73.8645 86.5363 72.9171 86.8826 71.6948 86.8826C70.8799 86.8826 70.1719 86.7451 69.5709 86.4701C68.9699 86.1849 68.5065 85.7927 68.1805 85.2936C67.8545 84.7944 67.6763 84.2189 67.6457 83.567H70.1974C70.2585 83.8828 70.4062 84.1476 70.6405 84.3615C70.8748 84.5652 71.1957 84.6671 71.6031 84.6671C72.0819 84.6671 72.4384 84.5143 72.6727 84.2087C72.9069 83.9031 73.0241 83.4957 73.0241 82.9864C73.0241 82.4872 72.9019 82.1053 72.6574 81.8404C72.4129 81.5756 72.0564 81.4432 71.5878 81.4432C71.2415 81.4432 70.9563 81.5297 70.7322 81.7029C70.5081 81.8659 70.3604 82.0849 70.2891 82.3599H67.768V75.7134H74.9035V78.0053ZM79.6002 84.4685L77.9042 88.8537H76.2387L77.1249 84.4685H79.6002ZM80.3659 84.7893C80.7122 84.5143 80.8701 84.387 80.8395 84.4074C81.8378 83.5823 82.6221 82.9049 83.1926 82.3752C83.7732 81.8455 84.2621 81.2904 84.6594 80.7097C85.0566 80.1291 85.2553 79.5638 85.2553 79.0137C85.2553 78.5961 85.1585 78.2701 84.965 78.0358C84.7714 77.8016 84.4811 77.6844 84.094 77.6844C83.707 77.6844 83.4014 77.8321 83.1773 78.1275C82.9634 78.4127 82.8564 78.8202 82.8564 79.3499H80.3353C80.3557 78.484 80.539 77.7608 80.8854 77.1802C81.2419 76.5996 81.7054 76.1717 82.2758 75.8967C82.8564 75.6217 83.4981 75.4842 84.201 75.4842C85.4132 75.4842 86.3248 75.7949 86.936 76.4162C87.5574 77.0376 87.8681 77.8474 87.8681 78.8456C87.8681 79.9356 87.4963 80.9491 86.7527 81.8863C86.0091 82.8132 85.0617 83.7198 83.9107 84.606H88.0361V86.7298H80.3659V84.7893ZM91.5395 83.6128C91.6923 84.4175 92.1609 84.8199 92.9452 84.8199C93.4851 84.8199 93.8671 84.5805 94.0912 84.1018C94.3153 83.623 94.4273 82.8438 94.4273 81.764C94.2033 82.0798 93.8977 82.3243 93.5106 82.4974C93.1235 82.6706 92.6906 82.7572 92.2118 82.7572C91.5599 82.7572 90.9793 82.6248 90.47 82.3599C89.9607 82.0849 89.5583 81.6825 89.2629 81.1528C88.9777 80.613 88.8351 79.961 88.8351 79.1971C88.8351 78.4433 88.9879 77.7863 89.2935 77.226C89.6092 76.6658 90.0523 76.2329 90.6228 75.9273C91.2034 75.6217 91.8859 75.4689 92.6702 75.4689C94.1778 75.4689 95.2321 75.9375 95.8331 76.8746C96.434 77.8117 96.7345 79.192 96.7345 81.0153C96.7345 82.3395 96.6123 83.4346 96.3678 84.3004C96.1336 85.1561 95.7312 85.808 95.1608 86.2562C94.6005 86.7044 93.8315 86.9285 92.8536 86.9285C92.0794 86.9285 91.4173 86.7757 90.8672 86.4701C90.3274 86.1645 89.9097 85.7621 89.6143 85.263C89.3291 84.7639 89.1661 84.2138 89.1254 83.6128H91.5395ZM92.8077 80.6945C93.2356 80.6945 93.5768 80.5671 93.8315 80.3125C94.0861 80.0476 94.2134 79.6911 94.2134 79.2429C94.2134 78.754 94.081 78.3771 93.8162 78.1122C93.5513 77.8474 93.1948 77.715 92.7466 77.715C92.2984 77.715 91.9419 77.8525 91.6771 78.1275C91.4224 78.3924 91.2951 78.7591 91.2951 79.2276C91.2951 79.6656 91.4224 80.0222 91.6771 80.2972C91.9419 80.562 92.3188 80.6945 92.8077 80.6945ZM97.6702 81.1528C97.6702 79.4008 98.0063 78.0206 98.6786 77.0121C99.3611 76.0037 100.456 75.4995 101.964 75.4995C103.471 75.4995 104.561 76.0037 105.233 77.0121C105.916 78.0206 106.257 79.4008 106.257 81.1528C106.257 82.9253 105.916 84.3157 105.233 85.3241C104.561 86.3326 103.471 86.8368 101.964 86.8368C100.456 86.8368 99.3611 86.3326 98.6786 85.3241C98.0063 84.3157 97.6702 82.9253 97.6702 81.1528ZM103.69 81.1528C103.69 80.124 103.578 79.3346 103.354 78.7845C103.13 78.2243 102.667 77.9442 101.964 77.9442C101.261 77.9442 100.797 78.2243 100.573 78.7845C100.349 79.3346 100.237 80.124 100.237 81.1528C100.237 81.8455 100.278 82.421 100.359 82.8794C100.441 83.3276 100.604 83.6943 100.848 83.9795C101.103 84.2546 101.475 84.3921 101.964 84.3921C102.453 84.3921 102.819 84.2546 103.064 83.9795C103.318 83.6943 103.487 83.3276 103.568 82.8794C103.65 82.421 103.69 81.8455 103.69 81.1528ZM108.661 87.0049C108.203 87.0049 107.826 86.8724 107.531 86.6076C107.245 86.3326 107.103 85.9964 107.103 85.5992C107.103 85.1917 107.245 84.8505 107.531 84.5754C107.826 84.3004 108.203 84.1629 108.661 84.1629C109.11 84.1629 109.476 84.3004 109.761 84.5754C110.057 84.8505 110.205 85.1917 110.205 85.5992C110.205 85.9964 110.057 86.3326 109.761 86.6076C109.476 86.8724 109.11 87.0049 108.661 87.0049ZM110.941 84.7893C111.288 84.5143 111.446 84.387 111.415 84.4074C112.413 83.5823 113.198 82.9049 113.768 82.3752C114.349 81.8455 114.838 81.2904 115.235 80.7097C115.632 80.1291 115.831 79.5638 115.831 79.0137C115.831 78.5961 115.734 78.2701 115.541 78.0358C115.347 77.8016 115.057 77.6844 114.67 77.6844C114.283 77.6844 113.977 77.8321 113.753 78.1275C113.539 78.4127 113.432 78.8202 113.432 79.3499H110.911C110.931 78.484 111.115 77.7608 111.461 77.1802C111.817 76.5996 112.281 76.1717 112.851 75.8967C113.432 75.6217 114.074 75.4842 114.777 75.4842C115.989 75.4842 116.9 75.7949 117.512 76.4162C118.133 77.0376 118.444 77.8474 118.444 78.8456C118.444 79.9356 118.072 80.9491 117.328 81.8863C116.585 82.8132 115.637 83.7198 114.486 84.606H118.612V86.7298H110.941V84.7893ZM119.395 78.8762C119.436 77.7863 119.793 76.9459 120.465 76.3551C121.137 75.7643 122.049 75.4689 123.2 75.4689C123.964 75.4689 124.616 75.6013 125.156 75.8662C125.706 76.131 126.118 76.4926 126.393 76.951C126.679 77.4094 126.821 77.9238 126.821 78.4942C126.821 79.1665 126.653 79.7166 126.317 80.1444C125.981 80.562 125.589 80.8473 125.14 81V81.0612C125.721 81.2547 126.179 81.5756 126.516 82.0238C126.852 82.472 127.02 83.0475 127.02 83.7503C127.02 84.3819 126.872 84.9421 126.577 85.4311C126.291 85.9098 125.869 86.2867 125.309 86.5618C124.758 86.8368 124.101 86.9743 123.337 86.9743C122.115 86.9743 121.137 86.6738 120.404 86.0728C119.681 85.4718 119.299 84.5652 119.258 83.3531H121.794C121.804 83.8013 121.932 84.1578 122.176 84.4226C122.421 84.6773 122.777 84.8046 123.246 84.8046C123.643 84.8046 123.949 84.6926 124.163 84.4685C124.387 84.2342 124.499 83.9286 124.499 83.5517C124.499 83.0628 124.341 82.7113 124.025 82.4974C123.719 82.2733 123.225 82.1613 122.543 82.1613H122.054V80.0374H122.543C123.062 80.0374 123.48 79.9509 123.796 79.7777C124.122 79.5943 124.285 79.2735 124.285 78.8151C124.285 78.4484 124.183 78.1632 123.979 77.9594C123.775 77.7557 123.495 77.6539 123.139 77.6539C122.752 77.6539 122.461 77.771 122.268 78.0053C122.085 78.2396 121.978 78.5299 121.947 78.8762H119.395Z" fill="#0A2759"/>
<path d="M162.191 92.0371C162.191 73.5988 154.867 55.9158 141.829 42.878C128.791 29.8402 111.108 22.5157 92.6699 22.5157C74.2316 22.5157 56.5486 29.8402 43.5108 42.878C30.473 55.9158 23.1484 73.5988 23.1484 92.0371L40.5288 92.0371C40.5288 78.2084 46.0222 64.9461 55.8006 55.1678C65.5789 45.3894 78.8412 39.896 92.6698 39.896C106.499 39.896 119.761 45.3894 129.539 55.1678C139.317 64.9461 144.811 78.2084 144.811 92.0371H162.191Z" fill="#D5FFE0"/>
<path d="M150.166 52.9547C141.804 40.6527 129.716 31.3571 115.68 26.4339C101.643 21.5107 86.3974 21.2194 72.1829 25.6028C57.9685 29.9862 45.5348 38.8132 36.7088 50.7868C27.8828 62.7604 23.1299 77.2491 23.1485 92.1241L40.5288 92.1023C40.5149 80.9461 44.0795 70.0796 50.699 61.0994C57.3185 52.1192 66.6438 45.4989 77.3047 42.2114C87.9655 38.9238 99.3997 39.1423 109.927 42.8347C120.455 46.5271 129.52 53.4988 135.792 62.7253L150.166 52.9547Z" fill="#1CA440"/>
</svg>
