<svg width="319" height="162" viewBox="0 0 319 162" fill="none" xmlns="http://www.w3.org/2000/svg">
<g filter="url(#filter0_d_1191_132)">
<rect x="28" y="18" width="262.607" height="105.579" rx="11.1942" fill="white"/>
<path d="M58.1589 56.8964C57.6464 56.8964 57.1851 56.8085 56.7751 56.6328C56.3651 56.4498 56.043 56.1935 55.8087 55.8641C55.5744 55.5346 55.4573 55.1502 55.4573 54.711H56.7971C56.8264 55.0404 56.9545 55.3113 57.1815 55.5236C57.4157 55.736 57.7415 55.8421 58.1589 55.8421C58.5908 55.8421 58.9276 55.7396 59.1692 55.5346C59.4108 55.3223 59.5316 55.0514 59.5316 54.7219C59.5316 54.4657 59.4548 54.257 59.301 54.096C59.1546 53.9349 58.9679 53.8104 58.7409 53.7226C58.5213 53.6347 58.2138 53.5395 57.8184 53.437C57.3206 53.3053 56.9142 53.1735 56.5994 53.0417C56.2919 52.9026 56.0283 52.6903 55.8087 52.4047C55.5891 52.1192 55.4792 51.7385 55.4792 51.2626C55.4792 50.8233 55.5891 50.4389 55.8087 50.1095C56.0283 49.78 56.3358 49.5274 56.7312 49.3517C57.1266 49.176 57.5841 49.0881 58.104 49.0881C58.8434 49.0881 59.4474 49.2748 59.916 49.6482C60.3919 50.0143 60.6555 50.5195 60.7067 51.1637H59.323C59.301 50.8855 59.1692 50.6476 58.9276 50.4499C58.686 50.2522 58.3675 50.1534 57.9722 50.1534C57.6134 50.1534 57.3206 50.2449 57.0936 50.4279C56.8666 50.611 56.7532 50.8745 56.7532 51.2187C56.7532 51.4529 56.8227 51.647 56.9618 51.8007C57.1082 51.9471 57.2913 52.0643 57.5109 52.1521C57.7306 52.24 58.0307 52.3352 58.4115 52.4377C58.9166 52.5768 59.3266 52.7159 59.6415 52.855C59.9636 52.9941 60.2345 53.2101 60.4541 53.5029C60.6811 53.7885 60.7946 54.1728 60.7946 54.656C60.7946 55.0441 60.6884 55.4102 60.4761 55.7543C60.2711 56.0984 59.9673 56.3766 59.5646 56.5889C59.1692 56.7939 58.7007 56.8964 58.1589 56.8964ZM68.6305 55.2601H65.4347L64.8856 56.8195H63.5787L66.3132 49.176H67.7629L70.4974 56.8195H69.1796L68.6305 55.2601ZM68.279 54.2387L67.0381 50.6915L65.7861 54.2387H68.279ZM80.0218 49.187L77.1555 56.8195H75.7058L72.8285 49.187H74.1684L76.4307 55.5346L78.704 49.187H80.0218ZM84.0779 49.187V56.8195H82.8259V49.187H84.0779ZM93.7495 56.8195H92.4975L88.7307 51.1198V56.8195H87.4787V49.176H88.7307L92.4975 54.8647V49.176H93.7495V56.8195ZM102.675 51.3834C102.477 51.0027 102.202 50.7171 101.851 50.5268C101.5 50.3291 101.093 50.2303 100.632 50.2303C100.127 50.2303 99.6766 50.3437 99.2812 50.5707C98.8859 50.7977 98.5747 51.1198 98.3477 51.5371C98.1281 51.9545 98.0183 52.4377 98.0183 52.9868C98.0183 53.5359 98.1281 54.0227 98.3477 54.4474C98.5747 54.8647 98.8859 55.1868 99.2812 55.4138C99.6766 55.6408 100.127 55.7543 100.632 55.7543C101.313 55.7543 101.866 55.5639 102.29 55.1832C102.715 54.8025 102.975 54.2863 103.07 53.6347H100.204V52.6353H104.41V53.6127C104.329 54.2058 104.117 54.7512 103.773 55.2491C103.436 55.7469 102.993 56.146 102.444 56.4461C101.902 56.739 101.298 56.8854 100.632 56.8854C99.9145 56.8854 99.2593 56.7207 98.6662 56.3912C98.0732 56.0544 97.601 55.5895 97.2495 54.9965C96.9054 54.4035 96.7334 53.7336 96.7334 52.9868C96.7334 52.24 96.9054 51.5701 97.2495 50.977C97.601 50.384 98.0732 49.9228 98.6662 49.5933C99.2666 49.2565 99.9218 49.0881 100.632 49.0881C101.445 49.0881 102.166 49.2895 102.795 49.6921C103.432 50.0875 103.894 50.6512 104.179 51.3834H102.675Z" fill="#778191"/>
<path d="M65.6743 86.0253C65.6743 86.6964 65.4973 87.3188 65.1435 87.8923C64.8018 88.4536 64.2893 88.9173 63.606 89.2833C62.9349 89.6372 62.1356 89.8324 61.2082 89.8691V91.3516H60.0368V89.8507C58.7434 89.7409 57.7001 89.3566 56.9069 88.6976C56.1138 88.0265 55.6928 87.1174 55.644 85.9704H58.9752C59.0484 86.7025 59.4023 87.1723 60.0368 87.3798V84.4878C59.085 84.2438 58.3224 84.0058 57.7489 83.774C57.1876 83.5421 56.6934 83.17 56.2663 82.6575C55.8392 82.145 55.6257 81.4433 55.6257 80.5526C55.6257 79.4422 56.0344 78.5514 56.852 77.8803C57.6818 77.2091 58.7434 76.8309 60.0368 76.7455V75.2629H61.2082V76.7455C62.4895 76.8431 63.5023 77.2152 64.2466 77.862C64.9909 78.5087 65.4058 79.4056 65.4912 80.5526H62.1417C62.0685 79.8937 61.7573 79.4666 61.2082 79.2713V82.1084C62.221 82.389 63.002 82.6392 63.5511 82.8588C64.1002 83.0785 64.5883 83.4445 65.0154 83.957C65.4546 84.4573 65.6743 85.1468 65.6743 86.0253ZM58.9386 80.4062C58.9386 80.7112 59.0301 80.9675 59.2131 81.1749C59.4084 81.3823 59.6829 81.5654 60.0368 81.724V79.1798C59.6951 79.2408 59.4267 79.3751 59.2315 79.5825C59.0362 79.7777 58.9386 80.0523 58.9386 80.4062ZM61.2082 87.4347C61.5743 87.3737 61.8611 87.2272 62.0685 86.9954C62.2881 86.7636 62.398 86.4768 62.398 86.1351C62.398 85.8179 62.2942 85.5616 62.0868 85.3664C61.8916 85.159 61.5987 84.982 61.2082 84.8356V87.4347ZM67.0325 87.2517C67.4473 86.9222 67.6365 86.7697 67.5999 86.7941C68.7957 85.8057 69.7353 84.9942 70.4186 84.3597C71.1141 83.7252 71.6998 83.0602 72.1757 82.3646C72.6516 81.6691 72.8896 80.9919 72.8896 80.3329C72.8896 79.8326 72.7736 79.4422 72.5418 79.1615C72.31 78.8809 71.9622 78.7405 71.4985 78.7405C71.0348 78.7405 70.6687 78.9175 70.4003 79.2713C70.144 79.613 70.0159 80.1011 70.0159 80.7356H66.9958C67.0203 79.6984 67.2399 78.8321 67.6548 78.1365C68.0819 77.441 68.6371 76.9285 69.3204 76.599C70.0159 76.2696 70.7847 76.1048 71.6266 76.1048C73.0787 76.1048 74.1708 76.477 74.903 77.2213C75.6473 77.9657 76.0195 78.9358 76.0195 80.1316C76.0195 81.4372 75.5741 82.6514 74.6833 83.774C73.7925 84.8844 72.6577 85.9704 71.2789 87.032H76.2208V89.5762H67.0325V87.2517ZM80.7287 86.8673L78.6971 92.1204H76.702L77.7636 86.8673H80.7287ZM91.1637 79.1249H85.453V81.6508C85.6971 81.3823 86.0388 81.1627 86.478 80.9919C86.9173 80.821 87.3932 80.7356 87.9057 80.7356C88.8209 80.7356 89.5774 80.9431 90.1753 81.3579C90.7855 81.7728 91.2308 82.3097 91.5115 82.9686C91.7922 83.6276 91.9325 84.3414 91.9325 85.1101C91.9325 86.5378 91.5298 87.6726 90.7245 88.5146C89.9191 89.3444 88.7843 89.7592 87.32 89.7592C86.3438 89.7592 85.4958 89.5945 84.7758 89.265C84.0559 88.9234 83.5007 88.4536 83.1102 87.8557C82.7197 87.2578 82.5062 86.5683 82.4696 85.7874H85.5263C85.5995 86.1656 85.7764 86.4829 86.0571 86.7392C86.3377 86.9832 86.7221 87.1052 87.2102 87.1052C87.7837 87.1052 88.2108 86.9222 88.4914 86.5561C88.7721 86.1901 88.9124 85.702 88.9124 85.0918C88.9124 84.4939 88.766 84.0363 88.4731 83.7191C88.1803 83.4018 87.7532 83.2432 87.1919 83.2432C86.777 83.2432 86.4353 83.3469 86.1669 83.5544C85.8984 83.7496 85.7215 84.0119 85.6361 84.3414H82.616V76.3794H91.1637V79.1249ZM99.7186 80.0035C99.621 79.552 99.4502 79.2164 99.2061 78.9968C98.9621 78.7649 98.6143 78.649 98.1628 78.649C97.4673 78.649 96.967 78.9541 96.6619 79.5642C96.3569 80.1621 96.1982 81.1139 96.186 82.4195C96.4545 81.9925 96.8389 81.6569 97.3392 81.4128C97.8517 81.1688 98.413 81.0468 99.0231 81.0468C100.219 81.0468 101.177 81.425 101.897 82.1816C102.629 82.9381 102.995 83.9936 102.995 85.3481C102.995 86.2389 102.812 87.0198 102.446 87.6909C102.092 88.3621 101.567 88.8868 100.872 89.265C100.188 89.6433 99.3769 89.8324 98.4374 89.8324C96.5582 89.8324 95.2526 89.2467 94.5204 88.0753C93.7883 86.8917 93.4222 85.1956 93.4222 82.9869C93.4222 80.6685 93.8066 78.948 94.5753 77.8254C95.3563 76.6905 96.6009 76.1231 98.3092 76.1231C99.2244 76.1231 99.9932 76.3062 100.615 76.6722C101.25 77.0261 101.726 77.4959 102.043 78.0816C102.373 78.6673 102.568 79.3079 102.629 80.0035H99.7186ZM98.2726 83.5177C97.7479 83.5177 97.3087 83.6764 96.9548 83.9936C96.6131 84.2987 96.4423 84.738 96.4423 85.3115C96.4423 85.8972 96.6009 86.3548 96.9182 86.6842C97.2476 87.0137 97.7113 87.1784 98.3092 87.1784C98.8461 87.1784 99.2671 87.0198 99.5722 86.7025C99.8894 86.3731 100.048 85.9277 100.048 85.3664C100.048 84.7929 99.8955 84.3414 99.5905 84.0119C99.2854 83.6825 98.8461 83.5177 98.2726 83.5177ZM104.216 82.8954C104.216 80.7966 104.619 79.1432 105.424 77.9352C106.242 76.7272 107.553 76.1231 109.359 76.1231C111.165 76.1231 112.471 76.7272 113.276 77.9352C114.094 79.1432 114.503 80.7966 114.503 82.8954C114.503 85.0186 114.094 86.6842 113.276 87.8923C112.471 89.1003 111.165 89.7043 109.359 89.7043C107.553 89.7043 106.242 89.1003 105.424 87.8923C104.619 86.6842 104.216 85.0186 104.216 82.8954ZM111.428 82.8954C111.428 81.663 111.293 80.7173 111.025 80.0584C110.757 79.3873 110.201 79.0517 109.359 79.0517C108.517 79.0517 107.962 79.3873 107.694 80.0584C107.425 80.7173 107.291 81.663 107.291 82.8954C107.291 83.7252 107.34 84.4146 107.438 84.9637C107.535 85.5006 107.73 85.9399 108.023 86.2816C108.328 86.611 108.774 86.7758 109.359 86.7758C109.945 86.7758 110.384 86.611 110.677 86.2816C110.982 85.9399 111.184 85.5006 111.281 84.9637C111.379 84.4146 111.428 83.7252 111.428 82.8954Z" fill="#0A2759"/>
<rect x="196.203" y="73.0243" width="67.5845" height="20.4699" rx="10.235" fill="#D5FFE0"/>
<path fill-rule="evenodd" clip-rule="evenodd" d="M207.379 87.8306C207.491 87.8306 207.597 87.7865 207.676 87.7079C207.754 87.6293 207.798 87.5227 207.798 87.4116V77.5278L210.435 80.1653C210.514 80.244 210.621 80.2882 210.732 80.2882C210.843 80.2882 210.95 80.244 211.029 80.1653C211.107 80.0866 211.151 79.9799 211.151 79.8686C211.151 79.7573 211.107 79.6506 211.029 79.5719L207.676 76.2195C207.637 76.1805 207.591 76.1495 207.54 76.1284C207.489 76.1072 207.435 76.0964 207.379 76.0964C207.324 76.0964 207.27 76.1072 207.219 76.1284C207.168 76.1495 207.122 76.1805 207.083 76.2195L203.73 79.5719C203.691 79.6109 203.66 79.6571 203.639 79.708C203.618 79.7589 203.607 79.8135 203.607 79.8686C203.607 79.9799 203.652 80.0866 203.73 80.1653C203.809 80.244 203.916 80.2882 204.027 80.2882C204.138 80.2882 204.245 80.244 204.324 80.1653L206.96 77.5278V87.4116C206.96 87.5227 207.005 87.6293 207.083 87.7079C207.162 87.7865 207.268 87.8306 207.379 87.8306Z" fill="#1CA440"/>
<path d="M216.801 80.2134V78.4836H220.033V88.2592H218.102V80.2134H216.801ZM222.209 86.1405C223.068 85.4253 223.751 84.8308 224.261 84.357C224.771 83.8743 225.195 83.3736 225.535 82.8551C225.875 82.3366 226.044 81.827 226.044 81.3264C226.044 80.8705 225.937 80.5129 225.723 80.2536C225.508 79.9944 225.177 79.8648 224.73 79.8648C224.283 79.8648 223.939 80.0167 223.698 80.3207C223.456 80.6157 223.331 81.0225 223.322 81.541H221.499C221.534 80.4682 221.852 79.6547 222.451 79.1004C223.059 78.5461 223.827 78.269 224.757 78.269C225.776 78.269 226.559 78.5417 227.104 79.087C227.649 79.6234 227.922 80.3341 227.922 81.2191C227.922 81.9164 227.734 82.5825 227.359 83.2172C226.983 83.8519 226.554 84.4062 226.071 84.88C225.589 85.3449 224.958 85.9081 224.181 86.5696H228.136V88.1251H221.512V86.7305L222.209 86.1405ZM231.224 85.5102C231.295 85.9036 231.456 86.2075 231.706 86.4221C231.966 86.6277 232.31 86.7305 232.739 86.7305C233.293 86.7305 233.695 86.5026 233.946 86.0466C234.196 85.5818 234.321 84.804 234.321 83.7133C234.116 83.9994 233.825 84.2229 233.45 84.3838C233.083 84.5447 232.685 84.6252 232.256 84.6252C231.684 84.6252 231.165 84.509 230.701 84.2765C230.245 84.0352 229.883 83.6821 229.614 83.2172C229.346 82.7434 229.212 82.1712 229.212 81.5007C229.212 80.5084 229.507 79.7217 230.097 79.1406C230.687 78.5506 231.492 78.2556 232.511 78.2556C233.78 78.2556 234.674 78.6623 235.193 79.4759C235.72 80.2894 235.984 81.5141 235.984 83.1501C235.984 84.3123 235.881 85.2644 235.676 86.0064C235.479 86.7484 235.135 87.3116 234.643 87.696C234.16 88.0804 233.499 88.2726 232.658 88.2726C231.997 88.2726 231.434 88.1475 230.969 87.8972C230.504 87.6379 230.146 87.3027 229.896 86.8914C229.655 86.4713 229.516 86.0109 229.48 85.5102H231.224ZM232.645 83.0965C233.11 83.0965 233.476 82.9535 233.745 82.6674C234.013 82.3813 234.147 81.9969 234.147 81.5141C234.147 80.9867 234.004 80.5799 233.718 80.2939C233.441 79.9988 233.061 79.8513 232.578 79.8513C232.095 79.8513 231.711 80.0033 231.425 80.3073C231.148 80.6023 231.009 80.9956 231.009 81.4873C231.009 81.9611 231.143 82.35 231.411 82.654C231.688 82.949 232.1 83.0965 232.645 83.0965ZM238.223 88.3531C237.883 88.3531 237.602 88.2503 237.378 88.0447C237.164 87.8301 237.056 87.5664 237.056 87.2535C237.056 86.9406 237.164 86.6814 237.378 86.4757C237.602 86.2612 237.883 86.1539 238.223 86.1539C238.554 86.1539 238.827 86.2612 239.041 86.4757C239.256 86.6814 239.363 86.9406 239.363 87.2535C239.363 87.5664 239.256 87.8301 239.041 88.0447C238.827 88.2503 238.554 88.3531 238.223 88.3531ZM240.392 83.244C240.392 81.6974 240.669 80.4861 241.224 79.61C241.787 78.7339 242.717 78.2958 244.013 78.2958C245.309 78.2958 246.235 78.7339 246.789 79.61C247.352 80.4861 247.634 81.6974 247.634 83.244C247.634 84.7995 247.352 86.0198 246.789 86.9049C246.235 87.7899 245.309 88.2324 244.013 88.2324C242.717 88.2324 241.787 87.7899 241.224 86.9049C240.669 86.0198 240.392 84.7995 240.392 83.244ZM245.783 83.244C245.783 82.5825 245.738 82.0282 245.649 81.5812C245.568 81.1253 245.399 80.7543 245.139 80.4682C244.889 80.1821 244.514 80.0391 244.013 80.0391C243.512 80.0391 243.132 80.1821 242.873 80.4682C242.623 80.7543 242.453 81.1253 242.364 81.5812C242.283 82.0282 242.243 82.5825 242.243 83.244C242.243 83.9234 242.283 84.4956 242.364 84.9604C242.444 85.4164 242.614 85.7874 242.873 86.0734C243.132 86.3506 243.512 86.4891 244.013 86.4891C244.514 86.4891 244.894 86.3506 245.153 86.0734C245.412 85.7874 245.582 85.4164 245.662 84.9604C245.743 84.4956 245.783 83.9234 245.783 83.244ZM248.579 80.8839C248.579 80.2045 248.775 79.6725 249.169 79.2881C249.571 78.9037 250.085 78.7115 250.711 78.7115C251.337 78.7115 251.846 78.9037 252.24 79.2881C252.642 79.6725 252.843 80.2045 252.843 80.8839C252.843 81.5723 252.642 82.1086 252.24 82.4931C251.846 82.8775 251.337 83.0697 250.711 83.0697C250.085 83.0697 249.571 82.8775 249.169 82.4931C248.775 82.1086 248.579 81.5723 248.579 80.8839ZM257.188 78.8724L251.918 88.2592H250.094L255.351 78.8724H257.188ZM250.698 79.8379C250.206 79.8379 249.96 80.1866 249.96 80.8839C249.96 81.5901 250.206 81.9433 250.698 81.9433C250.939 81.9433 251.127 81.8583 251.261 81.6885C251.395 81.5097 251.462 81.2415 251.462 80.8839C251.462 80.1866 251.207 79.8379 250.698 79.8379ZM254.466 86.2344C254.466 85.546 254.662 85.0141 255.056 84.6386C255.458 84.2542 255.972 84.062 256.598 84.062C257.224 84.062 257.729 84.2542 258.113 84.6386C258.506 85.0141 258.703 85.546 258.703 86.2344C258.703 86.9227 258.506 87.4591 258.113 87.8435C257.729 88.2279 257.224 88.4201 256.598 88.4201C255.963 88.4201 255.449 88.2279 255.056 87.8435C254.662 87.4591 254.466 86.9227 254.466 86.2344ZM256.584 85.1884C256.075 85.1884 255.82 85.5371 255.82 86.2344C255.82 86.9406 256.075 87.2937 256.584 87.2937C257.085 87.2937 257.335 86.9406 257.335 86.2344C257.335 85.5371 257.085 85.1884 256.584 85.1884Z" fill="#1CA440"/>
</g>
<defs>
<filter id="filter0_d_1191_132" x="0.0631046" y="0.120387" width="318.481" height="161.452" filterUnits="userSpaceOnUse" color-interpolation-filters="sRGB">
<feFlood flood-opacity="0" result="BackgroundImageFix"/>
<feColorMatrix in="SourceAlpha" type="matrix" values="0 0 0 0 0 0 0 0 0 0 0 0 0 0 0 0 0 0 127 0" result="hardAlpha"/>
<feOffset dy="10.0573"/>
<feGaussianBlur stdDeviation="13.9684"/>
<feColorMatrix type="matrix" values="0 0 0 0 0 0 0 0 0 0 0 0 0 0 0 0 0 0 0.1 0"/>
<feBlend mode="normal" in2="BackgroundImageFix" result="effect1_dropShadow_1191_132"/>
<feBlend mode="normal" in="SourceGraphic" in2="effect1_dropShadow_1191_132" result="shape"/>
</filter>
</defs>
</svg>
